<?xml version="1.0" encoding="UTF-8"?>
<svg id="Layer_1" data-name="Layer 1" xmlns="http://www.w3.org/2000/svg" xmlns:xlink="http://www.w3.org/1999/xlink" viewBox="0 0 1080 1080">
  <defs>
    <style>
      .cls-1 {
        fill: #5f575a;
      }

      .cls-2 {
        clip-path: url(#clippath-1);
      }

      .cls-3 {
        clip-path: url(#clippath);
      }

      .cls-4 {
        fill: url(#Foliage_14-2);
      }

      .cls-5 {
        fill: none;
      }

      .cls-6 {
        fill: url(#Foliage_14-3);
      }

      .cls-7 {
        fill: url(#Foliage_14);
      }
    </style>
    <clipPath id="clippath">
      <path class="cls-5" d="m540.23,264.19c50.92,0,92.19,41.27,92.19,92.19s-41.27,92.18-92.19,92.18-92.19-41.27-92.19-92.18,41.27-92.19,92.19-92.19"/>
    </clipPath>
    <clipPath id="clippath-1">
      <rect class="cls-5" x="388.99" y="255.4" width="302.48" height="201.65"/>
    </clipPath>
    <linearGradient id="Foliage_14" data-name="Foliage 14" x1="353.43" y1="518.62" x2="407.31" y2="518.62" gradientUnits="userSpaceOnUse">
      <stop offset=".01" stop-color="#009d84"/>
      <stop offset=".5" stop-color="#008b6a"/>
      <stop offset="1" stop-color="#065"/>
    </linearGradient>
    <linearGradient id="Foliage_14-2" data-name="Foliage 14" x1="353.43" y1="356.37" x2="727.02" y2="356.37" xlink:href="#Foliage_14"/>
    <linearGradient id="Foliage_14-3" data-name="Foliage 14" x1="583.09" y1="605.16" x2="677.28" y2="605.16" xlink:href="#Foliage_14"/>
  </defs>
  <g>
    <path class="cls-1" d="m214.11,776.12h9.26c1.68,0,2.94.22,3.78.66.83.44,1.61,1.17,2.33,2.17l23.44,32.27c1.05,1.72,2.69,2.58,4.92,2.58h10.84l-26.34-35.85c-1.18-1.68-2.52-2.96-4.03-3.85,3.48-.8,6.6-1.97,9.36-3.53,2.75-1.55,5.08-3.43,7-5.64,1.91-2.2,3.37-4.69,4.38-7.47,1.01-2.77,1.51-5.75,1.51-8.95,0-3.82-.65-7.28-1.95-10.37-1.3-3.09-3.31-5.73-6.02-7.91-2.71-2.18-6.14-3.85-10.3-5.01-4.16-1.16-9.1-1.74-14.81-1.74h-25.52v90.3h12.16v-37.68Zm0-42.98h13.36c7.01,0,12.3,1.37,15.85,4.1,3.55,2.73,5.33,6.78,5.33,12.16,0,2.65-.46,5.07-1.39,7.25-.92,2.18-2.3,4.07-4.13,5.64-1.83,1.57-4.1,2.79-6.8,3.66-2.71.86-5.86,1.29-9.42,1.29h-12.79v-34.09Z"/>
    <path class="cls-1" d="m364.6,812.93c.72-.59,1.22-1.26,1.51-2.02l8.45-21.81h40.52l8.44,21.81c.33.84.84,1.53,1.51,2.08.67.55,1.56.82,2.64.82h9.46l-36.11-90.3h-12.41l-36.11,90.3h9.45c1.05,0,1.93-.29,2.64-.88m27.54-69.32c.42-1.09.85-2.36,1.29-3.81.44-1.45.89-3.03,1.35-4.76.88,3.41,1.79,6.24,2.71,8.51l14.18,36.74h-33.71l14.18-36.68Z"/>
    <path class="cls-1" d="m551.45,814.81c4.79,0,9.06-.73,12.82-2.2,3.76-1.47,6.93-3.48,9.52-6.05,2.58-2.56,4.54-5.57,5.89-9.04,1.35-3.46,2.02-7.17,2.02-11.12,0-3.74-.62-6.89-1.86-9.45-1.24-2.56-2.88-4.73-4.92-6.49-2.03-1.77-4.35-3.23-6.93-4.38-2.58-1.16-5.23-2.19-7.94-3.12-2.71-.92-5.35-1.82-7.94-2.68-2.58-.86-4.89-1.88-6.93-3.06-2.03-1.17-3.67-2.59-4.91-4.25-1.24-1.66-1.86-3.75-1.86-6.27,0-1.97.35-3.81,1.07-5.52.71-1.7,1.77-3.18,3.18-4.44,1.41-1.26,3.16-2.26,5.26-3,2.1-.73,4.51-1.1,7.24-1.1,2.9,0,5.37.36,7.41,1.07,2.04.72,3.78,1.5,5.23,2.36,1.45.86,2.64,1.65,3.59,2.36.95.72,1.78,1.07,2.49,1.07.67,0,1.22-.16,1.64-.47.42-.32.82-.79,1.2-1.42l2.96-5.8c-3.11-3.03-6.74-5.34-10.9-6.93-4.16-1.6-8.76-2.4-13.8-2.4-4.49,0-8.48.69-11.94,2.08-3.47,1.39-6.38,3.24-8.73,5.55-2.35,2.31-4.15,4.96-5.39,7.94-1.24,2.98-1.86,6.07-1.86,9.26,0,3.99.62,7.34,1.86,10.05,1.24,2.71,2.87,4.97,4.88,6.77,2.02,1.81,4.32,3.28,6.9,4.41,2.58,1.13,5.23,2.13,7.94,2.99,2.71.86,5.36,1.7,7.94,2.52,2.58.82,4.89,1.82,6.9,3,2.02,1.18,3.65,2.63,4.88,4.38,1.24,1.75,1.86,3.98,1.86,6.71,0,2.48-.42,4.72-1.26,6.74-.84,2.02-2.05,3.75-3.62,5.2-1.58,1.45-3.5,2.57-5.77,3.37-2.27.8-4.85,1.2-7.75,1.2-3.48,0-6.44-.47-8.85-1.42-2.42-.95-4.48-1.98-6.18-3.12-1.7-1.13-3.12-2.17-4.25-3.12-1.14-.94-2.14-1.42-3.03-1.42-.59,0-1.12.16-1.61.47-.48.32-.89.7-1.23,1.17l-3.53,5.8c3.41,3.61,7.51,6.48,12.32,8.6,4.81,2.12,10.14,3.18,15.98,3.18"/>
    <rect class="cls-1" x="681.45" y="723.5" width="12.23" height="90.3"/>
    <path class="cls-1" d="m874.85,787.15c2.14-5.54,3.21-11.7,3.21-18.46s-1.07-12.92-3.21-18.47c-2.14-5.54-5.17-10.3-9.07-14.27-3.91-3.97-8.6-7.04-14.06-9.2-5.46-2.16-11.51-3.25-18.15-3.25h-33.78v90.31h33.78c6.64,0,12.69-1.08,18.15-3.25,5.46-2.16,10.15-5.22,14.06-9.17,3.9-3.95,6.93-8.7,9.07-14.24m-11.6-3.59c-1.51,4.37-3.65,8.06-6.42,11.06-2.78,3.01-6.14,5.3-10.09,6.9-3.95,1.6-8.34,2.39-13.17,2.39h-21.49v-70.52h21.49c4.83,0,9.22.8,13.17,2.39,3.95,1.6,7.31,3.91,10.09,6.93,2.77,3.03,4.92,6.72,6.42,11.09,1.51,4.37,2.27,9.33,2.27,14.87s-.76,10.5-2.27,14.87"/>
    <path class="cls-1" d="m839.6,841.1c-2.3-2.71-5.36-4.86-9.2-6.45-3.85-1.59-8.69-2.38-14.54-2.38-5.26,0-10.39.75-15.41,2.26-5.01,1.5-9.56,3.34-13.66,5.51v-4.26c0-.83-.42-1.25-1.25-1.25h-8.02c-.84,0-1.25.42-1.25,1.25v33.58c0,2.51-.48,4.24-1.44,5.2-.96.96-2.49,1.44-4.57,1.44h-21.68s-.04,0-.06,0-.04,0-.06,0h-13.78s-.04,0-.06,0c-.02,0-.04,0-.06,0h-13.78s-.04,0-.07,0c-.02,0-.04,0-.06,0h-13.78s-.04,0-.07,0c-.02,0-.04,0-.06,0h-13.78s-.04,0-.07,0c-.02,0-.04,0-.06,0h-13.78s-.04,0-.07,0c-.02,0-.04,0-.06,0h-13.78s-.04,0-.07,0c-.02,0-.04,0-.06,0h-13.78s-.04,0-.06,0-.04,0-.06,0h-13.78s-.04,0-.06,0-.04,0-.06,0h-13.78s-.04,0-.06,0-.04,0-.06,0h-13.78s-.04,0-.07,0c-.02,0-.04,0-.06,0h-13.78s-.04,0-.07,0c-.02,0-.04,0-.06,0h-13.78s-.04,0-.07,0c-.02,0-.04,0-.06,0h-13.78s-.04,0-.07,0c-.02,0-.04,0-.06,0h-13.78s-.04,0-.07,0c-.02,0-.04,0-.06,0h-13.78s-.04,0-.07,0c-.02,0-.04,0-.06,0h-13.78s-.04,0-.07,0c-.02,0-.04,0-.06,0h-13.78s-.04,0-.07,0c-.02,0-.04,0-.06,0h-13.78s-.04,0-.07,0c-.02,0-.04,0-.06,0h-13.78s-.04,0-.07,0c-.02,0-.04,0-.06,0h-13.78s-.04,0-.07,0c-.02,0-.04,0-.06,0h-13.78s-.04,0-.07,0c-.02,0-.04,0-.06,0h-13.78s-.04,0-.07,0c-.02,0-.04,0-.06,0h-13.78s-.04,0-.07,0c-.02,0-.04,0-.06,0h-13.78s-.04,0-.07,0c-.02,0-.04,0-.06,0h-13.78s-.04,0-.07,0c-.02,0-.04,0-.06,0h-13.78s-.04,0-.07,0c-.02,0-.04,0-.06,0h-13.78s-.04,0-.07,0c-.02,0-.04,0-.06,0h-13.78s-.04,0-.07,0c-.02,0-.04,0-.06,0h-13.78s-.04,0-.07,0c-.02,0-.04,0-.06,0h-13.78s-.04,0-.07,0c-.02,0-.04,0-.06,0h-13.78s-.04,0-.06,0c-.02,0-.04,0-.06,0h-13.78s-.04,0-.06,0c-.02,0-.04,0-.06,0h-13.78s-.04,0-.06,0c-.02,0-.04,0-.06,0h-13.78s-.04,0-.07,0c-.02,0-.04,0-.06,0h-13.78s-.04,0-.07,0c-.02,0-.04,0-.06,0h-1.38c-3.42,0-6.16-.71-8.2-2.13-2.05-1.42-3.07-3.55-3.07-6.39v-12.9c0-7.68-2-13.32-6.01-16.91-4.01-3.59-9.19-5.39-15.53-5.39h-18.42c-.84,0-1.25.42-1.25,1.25v7.27c0,.83.42,1.25,1.25,1.25h14.53c9.52,0,14.29,4.22,14.29,12.66v10.02c0,2.17-.12,3.97-.38,5.38-.26,1.42-.76,2.57-1.51,3.45-.75.88-1.84,1.5-3.26,1.88-1.42.38-3.3.56-5.63.56h-23.93c-.84,0-1.25.42-1.25,1.25v7.27c0,.83.41,1.25,1.25,1.25h27.81c4.01,0,7.27-.52,9.77-1.56,2.5-1.04,4.47-2.95,5.88-5.7.92,2.42,2.51,4.24,4.76,5.45,2.25,1.21,4.8,1.82,7.64,1.82h2.63s.04,0,.07,0c.02,0,.04,0,.06,0h13.78s.04,0,.07,0c.02,0,.04,0,.06,0h13.78s.04,0,.07,0c.02,0,.04,0,.06,0h13.78s.04,0,.07,0c.02,0,.04,0,.06,0h13.78s.04,0,.07,0c.02,0,.04,0,.06,0h13.78s.04,0,.07,0c.02,0,.04,0,.06,0h13.78s.04,0,.07,0,.04,0,.06,0h13.78s.04,0,.07,0,.04,0,.06,0h13.78s.04,0,.07,0,.04,0,.06,0h13.78s.04,0,.07,0c.02,0,.04,0,.06,0h13.78s.04,0,.07,0c.02,0,.04,0,.06,0h13.78s.05,0,.07,0c.02,0,.04,0,.06,0h13.78s.04,0,.07,0c.02,0,.04,0,.06,0h13.78s.04,0,.07,0c.02,0,.04,0,.06,0h13.78s.04,0,.07,0c.02,0,.04,0,.06,0h13.78s.04,0,.07,0,.04,0,.06,0h13.78s.04,0,.07,0,.04,0,.06,0h13.78s.04,0,.07,0,.04,0,.06,0h13.78s.05,0,.07,0c.02,0,.04,0,.06,0h13.78s.04,0,.07,0c.02,0,.04,0,.06,0h13.78s.04,0,.07,0c.02,0,.04,0,.06,0h13.78s.04,0,.07,0c.02,0,.04,0,.06,0h13.78s.04,0,.07,0c.02,0,.04,0,.06,0h13.78s.04,0,.07,0c.02,0,.04,0,.06,0h13.78s.04,0,.07,0c.02,0,.04,0,.06,0h13.78s.05,0,.07,0c.02,0,.04,0,.06,0h13.78s.04,0,.07,0c.02,0,.04,0,.06,0h13.78s.04,0,.07,0c.02,0,.04,0,.06,0h13.78s.04,0,.07,0c.02,0,.04,0,.06,0h13.78s.04,0,.07,0c.02,0,.04,0,.06,0h13.78s.04,0,.07,0c.02,0,.04,0,.06,0h13.78s.04,0,.07,0c.02,0,.04,0,.06,0h13.78s.04,0,.07,0c.02,0,.04,0,.06,0h13.78s.04,0,.07,0c.02,0,.04,0,.06,0h13.78s.04,0,.07,0c.02,0,.04,0,.06,0h13.78s.04,0,.07,0c.02,0,.04,0,.06,0h23.56c3.51,0,6.3-.54,8.39-1.63.84,1.09,2.26,1.63,4.26,1.63h42.09c3.34,0,6.23-.4,8.65-1.19,2.42-.79,4.38-2.13,5.89-4.01,1.5-1.88,2.61-4.34,3.32-7.39.71-3.05,1.06-6.79,1.06-11.21,0-4.01-.46-7.81-1.38-11.4-.92-3.59-2.53-6.74-4.83-9.46m-5.38,27.69c-.29,1.88-.86,3.34-1.69,4.39-.84,1.05-2,1.78-3.51,2.19-1.5.42-3.42.63-5.76.63h-37.09c.42-1.92.63-3.92.63-6.01v-20.17c1.84-.92,3.86-1.84,6.08-2.76,2.21-.92,4.55-1.76,7.01-2.51,2.46-.75,4.99-1.36,7.58-1.82,2.59-.46,5.14-.69,7.64-.69,3.76,0,6.89.44,9.4,1.31,2.5.88,4.51,2.15,6.02,3.82,1.5,1.67,2.57,3.72,3.19,6.14.62,2.43.94,5.18.94,8.27,0,2.92-.15,5.32-.44,7.2"/>
    <path class="cls-1" d="m876.25,834.53h-8.02c-.84,0-1.25.42-1.25,1.25v54.5c0,7.1-3.38,10.65-10.15,10.65h-2.88c-.83,0-1.25.42-1.25,1.26v7.27c0,.84.42,1.25,1.25,1.25h3.38c6.6,0,11.61-1.75,15.04-5.26,3.42-3.51,5.14-8.64,5.14-15.41v-54.25c0-.84-.42-1.25-1.25-1.25"/>
  </g>
  <g class="cls-3">
    <g class="cls-2">
      <path class="cls-1" d="m380.61,260.26c2.62.42,4.91,1.85,7.2,3.12,2.27,1.27,4.59,2.19,7.06,3.02,5.51,1.83,10.93,2.86,16.73,3.04,12.15.39,24.23-.38,36.36-.64,24.51-.53,49.1-.69,73.58.6,12.23.64,24.45,1.69,36.6,3.22,12.04,1.51,23.63,4.92,35.55,7.04,23.47,4.16,47.5,2.54,71.07.07,7.88-.83,15.86-1.73,23.55-3.67,5.57-1.4,13.33-3.48,16.31-8.96.6-1.11.79-2.22.92-3.44.05-.46-.67-.45-.71,0-.3,2.92-3.18,5.12-5.49,6.49-2.95,1.74-6.19,2.91-9.47,3.84-7.18,2.03-14.65,2.96-22.04,3.8-23.29,2.65-47.04,4.31-70.32.87-11.59-1.71-22.81-5.33-34.41-6.99-11.68-1.68-23.47-2.75-35.24-3.51-23.92-1.54-47.96-1.47-71.91-.7-5.95.19-11.9.44-17.85.7-6.01.26-12.01.67-18.01.31-5.82-.35-11.87-.36-17.59-1.59-2.83-.61-5.61-1.47-8.34-2.41-2.57-.88-4.84-2.11-7.22-3.4-1.96-1.06-3.91-1.94-6.14-2.18-.77-.08-.95,1.23-.18,1.36"/>
      <path class="cls-1" d="m380.66,248.19c-.04,1.74,2.63,3.16,3.83,3.95,2.82,1.83,5.95,3.21,9.01,4.59,2.63,1.18,5.23,2.39,7.84,3.61,4.53,2.14,9.36,3.46,14.34,3.97,5.9.59,11.95.24,17.86.16,6.17-.09,12.34-.21,18.51-.32,12.41-.23,24.82-.52,37.22.08,6.06.29,12.12.68,18.2.82,6.18.15,12.36.07,18.54.29,12.22.45,24.28,1.95,36.32,4.01,11.79,2.02,23.55,4.32,35.47,5.48,11.79,1.15,23.71.82,35.54.81,22.83,0,46.88-1.21,68.16-10.31,2.59-1.11,5.08-2.47,7.52-3.88.54-.31.05-1.16-.5-.85-9.99,5.53-21.45,8.69-32.63,10.71-11.3,2.05-22.79,2.81-34.25,3.11-11.45.3-22.99.52-34.43.11-11.86-.43-23.6-2.37-35.28-4.41-11.46-2-22.92-4.06-34.54-4.99-11.88-.95-23.78-.57-35.68-1.07-5.96-.26-11.92-.65-17.89-.84-5.93-.2-11.87-.13-17.81-.07-12.12.11-24.25.36-36.38.44-5.79.04-11.65.35-17.37-.69-4.77-.86-9.2-2.59-13.58-4.64-5.22-2.45-10.95-4.32-15.72-7.62-.75-.52-2.03-1.39-2.03-2.43,0-.18-.27-.18-.28,0"/>
      <path class="cls-1" d="m389.94,249.46c3.86,2.84,8.44,4.27,12.79,6.15,4.68,2.02,9.3,3.71,14.34,4.63,10.57,1.92,21.36,1.65,32.03.81,11.16-.88,22.29-2.32,33.51-2.3,11.19.02,22.37.58,33.53,1.36,11.16.79,22.31,1.78,33.45,2.78,5.87.53,11.73,1.13,17.56,2.03,5.47.84,10.9,1.95,16.36,2.88,10.84,1.85,21.67,2.91,32.67,3.03,11.17.12,22.35-.2,33.51-.32,10.92-.12,21.83-.98,32.67-2.32,4.84-.6,9.63-1.41,14.41-2.42,2.99-.63,6.02-1.24,8.76-2.66.98-.5,1.96-1.12,2.45-2.15.26-.55-.56-1.03-.82-.48-.62,1.32-2.34,1.91-3.63,2.32-1.53.49-3.11.86-4.68,1.21-3.96.86-7.93,1.66-11.94,2.26-10.69,1.59-21.55,2.51-32.35,2.87-10.91.36-21.87.4-32.78.5-11.14.1-22.2-.38-33.23-2.03-10.62-1.59-21.11-3.83-31.81-4.96-10.92-1.16-21.88-2.03-32.83-2.89-10.96-.86-21.95-1.57-32.95-1.83-10.95-.27-21.75.33-32.65,1.34-10.8.99-21.67,2.02-32.51,1.13-5.21-.43-10.44-1.2-15.47-2.69-4.68-1.38-9.25-3.44-13.8-5.22-2.25-.88-4.47-1.81-6.53-3.11-.06-.04-.12.06-.06.1"/>
      <path class="cls-1" d="m553.17,249.79c2.25.94,4.3,2.3,6.4,3.52,2.03,1.18,4.14,2.16,6.36,2.94,2.31.8,4.67,1.45,7.02,2.13,2.4.7,4.77,1.46,7.16,2.17,4.88,1.45,9.84,2.68,14.87,3.5,4.98.82,10,1.1,15.04,1.29,5.16.19,10.32.27,15.47.46,5.18.19,10.34.6,15.52.79,10.37.37,20.72.07,31.08-.33,4.95-.2,9.85-.64,14.65-1.96,4.61-1.26,9.1-2.79,13.8-3.72,1.2-.24,2.41-.4,3.64-.48.36-.02.35-.51,0-.55-4.78-.53-9.32.93-13.83,2.33-2.27.7-4.54,1.41-6.86,1.91-2.51.54-5.06.85-7.62,1.05-5.02.39-10.08.54-15.12.73-5.18.19-10.37.22-15.55.12-5.19-.11-10.36-.44-15.55-.71-5.15-.27-10.31-.36-15.46-.51-5.12-.14-10.26-.28-15.35-.85-5.01-.57-9.97-1.61-14.85-2.88-4.81-1.25-9.58-2.7-14.38-4.04-2.41-.67-4.83-1.41-7.13-2.42-2.18-.96-4.2-2.23-6.32-3.3-.96-.49-1.94-.94-2.95-1.31-.09-.04-.13.12-.04.15"/>
      <path class="cls-1" d="m574.25,250.37c2.76,2.08,6.05,3.1,9.36,3.91,3.73.92,7.52,1.68,11.27,2.51,9.06,2,18.2,3.55,27.45,4.45,9.24.9,18.52,1.3,27.81,1.36,4.63.03,9.26-.03,13.89-.16,4.63-.13,9.26-.24,13.86-.83,4.28-.54,8.54-1.25,12.83-1.78,4.02-.5,8.07-1.08,11.9-2.46.88-.32,1.74-.66,2.59-1.05.22-.1.06-.49-.17-.39-3.72,1.56-7.75,2.17-11.73,2.72-2.05.29-4.11.53-6.16.8-2.03.27-4.04.66-6.06,1-9.1,1.57-18.42,1.61-27.63,1.64-9.17.04-18.35-.25-27.48-1.08-9.2-.84-18.33-2.27-27.37-4.12-3.97-.81-7.93-1.73-11.91-2.52-3.52-.7-7.04-1.45-10.34-2.91-.73-.32-1.4-.71-2.05-1.18-.05-.04-.1.04-.05.09"/>
      <path class="cls-1" d="m611.25,253.41c6.25.91,12.31,2.81,18.48,4.1,3.09.64,6.22,1.12,9.38,1.25,3.39.13,6.81.07,10.2.12,6.77.1,13.54.21,20.3-.28,3.24-.23,6.5-.55,9.68-1.19,2.94-.6,5.8-1.51,8.6-2.57,5.65-2.14,11.01-4.95,16.62-7.19.71-.29,1.43-.57,2.15-.85.16-.06.09-.31-.07-.26-5.73,1.85-11.12,4.57-16.67,6.85-2.76,1.14-5.57,2.16-8.47,2.91-3.11.81-6.29,1.25-9.49,1.56-6.7.67-13.45.69-20.18.63-3.39-.03-6.78-.09-10.18-.1-3.29,0-6.51-.27-9.75-.85-6.19-1.1-12.23-3.03-18.47-3.92-.71-.1-1.42-.18-2.12-.26-.03,0-.04.05,0,.05"/>
      <path class="cls-1" d="m377.71,262c4.41,2.87,8.32,6.55,13.06,8.91,5.16,2.55,11.16,3.52,16.82,4.23,12.78,1.61,25.55.62,38.37.88,24.07.5,44.73,14.93,66.25,23.99,10.47,4.41,21.34,7.66,32.67,8.74,6.25.59,12.54.65,18.8.25,6.09-.39,12.06-1.36,18.08-2.32,6.17-.98,12.46-1.77,18.72-1.21,5.86.53,11.34,2.51,16.37,5.54,8.77,5.28,15.77,12.92,23.34,19.7,3.62,3.24,7.4,6.33,11.55,8.85,4.98,3.03,10.43,5.26,16,6.91,5.13,1.51,10.41,2.45,15.67,3.35,4.59.8,9.36,1.46,13.99.76,2.06-.31,4.01-.95,5.79-2.05.49-.31.05-1.08-.46-.78-4.25,2.46-9.49,2.35-14.23,1.84-4.98-.54-10.01-1.47-14.9-2.54-5.91-1.29-11.73-3.13-17.16-5.82-4.83-2.4-9.2-5.5-13.3-8.99-7.52-6.4-14.19-13.8-22.27-19.54-3.91-2.78-8.18-5.17-12.79-6.59-5.6-1.73-11.53-1.9-17.33-1.4-5.85.5-11.61,1.7-17.42,2.54-6.37.92-12.81,1.39-19.24,1.34-12.12-.11-23.87-2.4-35.22-6.6-10.67-3.95-20.79-9.18-31.03-14.08-10.31-4.93-20.86-9.81-32.24-11.63-12.18-1.96-24.7-.33-36.97-.85-6.43-.27-12.89-.86-19.18-2.28-2.96-.67-5.93-1.45-8.66-2.8-2.33-1.14-4.47-2.62-6.59-4.11-2.11-1.51-4.21-3.02-6.44-4.35-.08-.04-.15.07-.07.12"/>
      <path class="cls-1" d="m466.6,274.48c4.34,1.1,8.44,2.94,12.52,4.73,4.04,1.78,8.11,3.43,12.21,5.05,4.31,1.7,8.56,3.49,12.66,5.67,3.65,1.94,7.41,3.69,11.25,5.24,8.04,3.25,16.48,5.78,25.05,7.15,8.74,1.39,17.45,1.07,26.16-.31,9-1.43,17.99-3.15,27.14-2.61,7.79.46,15.67,1.78,23.11,4.16,7.42,2.38,14.4,6.07,20.23,11.29,3.12,2.8,5.44,6.03,7.89,9.39,2.41,3.29,5.39,5.94,8.88,8.06,7.53,4.56,16.18,7.56,24.66,9.75,4.42,1.14,8.87,2.18,13.43,2.54,4.69.36,9.13-.07,13.7-1.1,2.27-.51,4.61-1.03,6.92-1.31.79-.09,1.12-1.29.2-1.5-4.52-1.03-8.89.62-13.4,1.01-4.64.4-9.39.04-13.94-.94-8.87-1.9-17.67-4.32-25.95-8.06-3.91-1.77-8.05-3.76-11.14-6.8-2.85-2.8-5.11-6.16-7.93-8.99-5.34-5.36-11.57-9.54-18.58-12.39-6.97-2.84-14.36-4.33-21.79-5.33-4.21-.57-8.42-.95-12.66-.84-4.55.11-9.04.71-13.55,1.2-8.98.98-18,2.38-27.05,1.72-8.69-.64-17.3-2.48-25.53-5.34-4.08-1.42-8.07-3.05-11.97-4.91-3.95-1.88-7.75-4.02-11.78-5.73-4.11-1.75-8.31-3.29-12.44-4.99-4.11-1.7-8.11-3.64-12.33-5.05-1.93-.65-3.87-1.13-5.89-1.39-.36-.05-.43.54-.09.63"/>
      <path class="cls-1" d="m467.04,273.79c-.35-.08-1.16-.17-.71-.67.17-.2.8-.25,1.04-.3,1.07-.21,2.18-.29,3.27-.36,2.55-.17,5.1-.27,7.66-.31,7.97-.13,15.93.45,23.89.94,9.12.57,18.25,1.2,27.31,2.44,8.84,1.21,17.6,3.09,26.36,4.8,17.25,3.37,34.54,6.65,52,8.79,17.37,2.13,35.06,3.26,52.5,1.47,8.67-.89,17.14-2.88,25.77-4,4.3-.56,8.76-1.04,13.1-.8,4.05.23,7.98,1.36,11.85,2.49,1.91.55,3.83,1.04,5.77,1.49.8.18,1.13-.99.34-1.23-3.97-1.21-7.84-2.69-11.89-3.61-4.22-.95-8.39-1.03-12.69-.74-9.05.6-17.8,2.8-26.75,4.1-18.17,2.65-36.71,1.73-54.9-.33-18.39-2.09-36.57-5.61-54.76-8.97-9-1.66-17.99-3.48-27.07-4.61-9.28-1.16-18.62-1.62-27.95-2.12-8.04-.43-16.09-1.01-24.15-.92-2.62.03-5.25.07-7.85.35-1.09.12-3.69.08-3.86,1.59-.11.98.74,1.11,1.5,1.24.47.09.68-.63.2-.73"/>
      <path class="cls-1" d="m519.14,282.31c3.6.07,7.21.28,10.78.72,3.19.4,6.26,1.07,9.31,2.08,1.4.46,2.79.96,4.18,1.44.87.3,1.69.74,2.45,1.37.64.54,1.45,1.29,1.55,2.09-.01-.13,0,.11,0,.14-.02.13.02-.11,0,.02,0,.04-.02.08-.03.11.06-.12-.08.13-.06.09-.03.04-.14.17-.22.23-.44.35-1.05.51-1.59.62-1.42.3-2.94.17-4.37,0-1.47-.18-2.93-.48-4.39-.72-1.71-.28-3.41-.54-5.1-.95-1.76-.43-3.49-.95-5.19-1.56-1.37-.48-2.75-.97-4.1-1.49-1.23-.48-2.53-1.05-3.5-1.96-.35-.33-.67-.75-.79-1.11.05.16-.03-.03.01-.05.02-.01-.06.15,0,.07-.09.09.04.04-.07.08.07-.03.15-.1.23-.13-.13.06.13-.04.16-.04.08-.02.16-.04.24-.06.24-.05.33-.06.55-.08.46-.04.93-.05,1.39-.06,2.65,0,5.31-.23,7.96-.13,3.08.11,6.18.4,9.14,1.3.67.2,1.34.4,2,.65.34.13.58-.43.25-.59-2.92-1.42-6.24-1.84-9.43-2.15-3.08-.3-6.16-.47-9.25-.57-1.41-.04-5.05-.32-4.73,2.01.18,1.29,1.48,2.31,2.5,2.95,1.3.81,2.76,1.36,4.2,1.87,3.55,1.27,7.07,2.49,10.79,3.16,1.6.29,3.22.54,4.83.81,1.66.29,3.35.55,5.04.52,1.46-.03,3.13-.25,4.29-1.21.92-.76,1.02-1.93.53-2.96-.5-1.05-1.48-1.88-2.42-2.54-.99-.68-2.05-1.06-3.18-1.43-3.05-1-6.18-1.97-9.39-2.3-3.83-.38-7.72-.74-11.56-.56-1,.04-2,.11-3,.2-.08,0-.08.13,0,.13"/>
      <path class="cls-1" d="m507.03,277.9c6.9-.04,13.8.3,20.65,1.09,3.21.37,6.47.76,9.63,1.47,2.82.63,5.6,1.46,8.36,2.35,2.67.87,5.32,1.79,7.98,2.7,1.66.57,3.31,1.61,4.69,2.81.71.62,1.41,1.31,1.96,2.09.22.32.49.78.61,1.05.16.38.24.72.25,1.01.01.32-.04.59-.13.8-.18.38-.38.62-.72.89-.89.72-2.09,1.07-3.19,1.32-2.74.59-5.64.38-8.4.05-2.85-.34-5.66-.91-8.48-1.39-3.27-.55-6.53-1.04-9.76-1.83-3.44-.84-6.83-1.87-10.17-3.06-2.59-.92-5.21-1.83-7.77-2.85-2.37-.94-4.85-2.06-6.7-3.86-.67-.65-1.37-1.46-1.57-2.31-.04-.14,0-.03,0-.06,0-.07,0-.14,0-.22,0,.15,0,.03.02-.05.06-.17-.04.06.02-.05.01-.02.13-.19.07-.11-.06.08.07-.07.09-.09.05-.04.14-.11.04-.03.07-.05.14-.09.22-.14.22-.12.17-.1.33-.15.18-.06.35-.11.53-.16.37-.09.79-.16,1.09-.19.88-.1,1.77-.13,2.66-.13,2.08,0,4.15.03,6.23-.02,2.95-.07,5.91-.13,8.86,0,5.93.25,11.93.81,17.64,2.53,1.27.38,2.56.76,3.78,1.29.38.16.71-.39.33-.56-1.28-.56-2.55-1.1-3.89-1.51-1.43-.43-2.87-.79-4.33-1.09-3.05-.62-6.16-1.02-9.26-1.31-3.16-.29-6.33-.45-9.49-.6-2.66-.13-5.32-.15-7.98-.21-1.83-.04-3.69-.13-5.51.18-1.53.27-3.27,1.12-2.96,2.96.17,1.02.88,1.93,1.55,2.67.88.98,1.96,1.77,3.08,2.45,2.44,1.48,5.15,2.47,7.83,3.42,3.1,1.11,6.17,2.27,9.32,3.24,3.54,1.09,7.14,1.99,10.79,2.64,3.01.54,6.04,1,9.05,1.52,3.05.52,6.15,1,9.26.96,2.62-.03,5.68-.38,7.78-2.1,1.61-1.32,1.63-3.34.69-5.07-1.02-1.86-2.8-3.33-4.54-4.49-1.88-1.25-3.94-1.89-6.06-2.59-5.7-1.89-11.49-3.69-17.48-4.37-7.11-.82-14.31-1.45-21.47-1.28-1.84.04-3.68.13-5.52.23-.08,0-.08.13,0,.13"/>
      <path class="cls-1" d="m577.6,296.09c-1.78-.2-3.68-.7-5.25-1.56-1.53-.84-3.22-1.84-3.88-3.56-.45-1.16-.36-2.51.78-3.2,1.23-.75,2.81-.77,4.2-.74,3.04.06,5.97.81,8.94,1.36,2.81.52,5.66.87,8.49,1.29,3.21.48,6.43.98,9.64,1.49,6.34,1.03,12.65,2.31,19,3.26,3.18.48,6.37.93,9.56,1.38,3.18.45,6.35.99,9.55,1.27,3.25.29,6.51.15,9.76.13,3.23-.02,6.46.08,9.68-.01,6.41-.18,12.79-.9,19.16-1.66,6.16-.73,12.34-1.43,18.49-2.25,4.65-.62,9.62-1.35,14.24-.15,1.09.28,2.14.7,3.1,1.29.38.23.69-.34.34-.58-4.01-2.82-9.47-2.72-14.16-2.5-5.87.28-11.76.81-17.6,1.39-6.73.67-13.41,1.6-20.16,2.1-3.31.25-6.62.45-9.94.5-3.36.06-6.69.52-10.05.57-3.41.04-6.78-.38-10.16-.81-3.39-.44-6.79-.82-10.18-1.3-6.65-.94-13.24-2.24-19.87-3.28-3.35-.53-6.72-1.02-10.07-1.52-2.88-.44-5.79-.8-8.66-1.34-3.1-.58-6.17-1.34-9.33-1.48-2.59-.12-6.51.3-6.44,3.73.07,4.1,5.12,5.72,8.42,6.22.8.12,1.59.16,2.39.1.06,0,.06-.09,0-.09"/>
      <path class="cls-1" d="m567.68,291.81c2.45,3.12,6.69,4.5,10.5,4.9,2.43.26,4.9.12,7.33-.06,2.8-.2,5.6-.48,8.4-.64,5.6-.33,11.14-.09,16.69.77,5.38.84,10.68,2.19,15.86,3.84,2.5.8,5.04,1.6,7.43,2.69,2.27,1.02,4.41,2.28,6.45,3.71,4.27,3.01,7.71,6.83,11.45,10.43,1.84,1.77,3.77,3.42,5.92,4.81,2.1,1.37,4.34,2.52,6.61,3.6,4.77,2.28,9.59,4.33,14.67,5.82,5.3,1.56,10.74,2.76,16.14,3.92,5.17,1.12,10.47,2.23,15.78,2.36,1.27.04,2.54.01,3.82-.07.8-.05.82-1.26,0-1.26-5.24.03-10.46-.98-15.58-1.98-5.41-1.05-10.8-2.29-16.15-3.64-5.15-1.29-10.09-3.03-14.93-5.22-4.59-2.08-9.26-4.06-13.18-7.31-3.99-3.3-7.4-7.26-11.48-10.47-3.79-2.99-7.93-5.34-12.49-6.91-10.1-3.49-20.84-6.12-31.59-6.16-5.52-.02-11.01.62-16.53.71-4.3.07-8.63-.12-12.48-2.27-.89-.49-1.7-1.07-2.41-1.8-.15-.15-.35.07-.22.22"/>
      <path class="cls-1" d="m695.37,298.11c-2,.21-4.02.14-6.03.12-2.04-.02-4.05.02-6.07.22-1.99.2-3.97.43-5.97.54-2.07.11-4.15.05-6.22.12-4.16.12-8.32.41-12.47.78-1.34.12-2.73.24-4.01.71-1.14.42-2.39.94-3.27,1.81-.91.9-1.23,2.23-1.05,3.48.19,1.29.98,2.36,1.9,3.24.95.9,2.05,1.63,3.08,2.44,1.47,1.16,3,2.26,4.57,3.3,3.17,2.1,6.39,4.07,9.75,5.85,3.43,1.81,6.99,3.5,10.56,5,3.65,1.54,7.38,2.94,11.18,4.07,1.86.55,3.75,1.1,5.67,1.41,1.03.17,2.07.31,3.11.39.96.07,1.91.03,2.87.06.96.03,1.91.05,2.88.04.79,0,.74-1.11,0-1.2-.93-.11-1.84-.26-2.76-.43-.93-.18-1.86-.48-2.78-.72-1.82-.47-3.65-.9-5.47-1.34-3.7-.91-7.33-2.1-10.9-3.46-3.46-1.31-6.87-2.75-10.27-4.23-3.38-1.47-6.77-2.93-10.07-4.54-1.64-.8-3.21-1.7-4.75-2.68-1.4-.89-2.71-1.9-4.04-2.88-1.95-1.43-4.52-3.48-3.49-6.23.4-1.05,1.57-1.74,2.58-2.08.61-.21,1.28-.31,1.91-.44.54-.11,1.1-.19,1.65-.25,3.89-.43,7.81-.67,11.71-.85,1.98-.09,3.97-.13,5.95-.14,1.98,0,3.94-.18,5.91-.42,1.96-.24,3.91-.54,5.88-.65,1.92-.11,3.87-.07,5.79-.28.91-.09,1.81-.23,2.71-.42.19-.04.16-.38-.05-.36"/>
      <path class="cls-1" d="m694.83,302.56c-6.95-.19-13.85-1.05-20.81-.95-1.59.02-3.17.1-4.75.15-1.1.04-2.19.07-3.28.21-2.03.27-4.46.98-5.44,2.96-1.89,3.83,3.57,6.41,6.26,7.62.77.35,1.55.67,2.31,1.03,1.14.53,2.22,1.2,3.33,1.79,2.94,1.59,5.94,3.08,8.98,4.47,6.03,2.75,12.26,5.15,18.69,6.79.8.21,1.61.4,2.43.56.35.07.49-.42.15-.53-3.05-.96-6.12-1.86-9.14-2.9-3.07-1.06-6.1-2.23-9.07-3.52-2.93-1.26-5.81-2.63-8.64-4.11-2.27-1.18-4.45-2.53-6.73-3.68-1.63-.82-3.29-1.61-4.81-2.63-1.17-.79-2.77-1.85-2.92-3.39-.09-.87.42-1.7,1-2.32.75-.79,1.73-1.13,2.76-1.35,1.07-.22,2.16-.29,3.25-.33,1.29-.05,2.57-.11,3.86-.15,3.42-.11,6.84-.08,10.25.09,3.3.17,6.59.47,9.89.41.81,0,1.61-.08,2.42-.16.04,0,.04-.06,0-.06"/>
      <path class="cls-1" d="m692.68,305.26c-5.09-.2-10.14-.86-15.22-1.25-1.6-.12-3.23-.28-4.84-.18-.98.06-2.37.19-2.91,1.15-.69,1.21.61,2.71,1.4,3.5,1.34,1.35,3,2.36,4.61,3.35,1.68,1.02,3.29,2.15,5.02,3.1,1.89,1.03,3.87,1.89,5.88,2.66,2.26.87,4.59,1.56,6.91,2.25,2.31.68,4.65,1.35,7,1.85.38.08.49-.42.16-.56-1.86-.78-3.83-1.36-5.75-1.95-1.96-.61-3.92-1.19-5.86-1.85-1.96-.67-3.92-1.38-5.82-2.24-1.79-.81-3.46-1.78-5.12-2.81-1.53-.95-3.12-1.81-4.59-2.85-.73-.51-1.44-1.07-2.05-1.72-.46-.49-1.04-1.13-1.15-1.83-.17-1,1.29-1.17,1.98-1.24,1.41-.13,2.84-.01,4.24.07,5.37.33,10.72,1.05,16.1.86.19,0,.19-.29,0-.3"/>
      <path class="cls-1" d="m692,308.71c-.53-.07-1.08-.23-1.61-.36-.92-.21-1.83-.41-2.76-.58-.98-.18-1.96-.34-2.95-.39-.72-.04-1.54-.04-2.21.27-.57.26-.86.77-.74,1.39.19.99,1.1,1.71,1.9,2.23,2.28,1.5,5,2.35,7.48,3.45,3.9,1.74,7.91,3.8,12.19,4.37.29.04.31-.39.06-.48-3.45-1.24-6.79-2.67-10.14-4.17-1.49-.67-2.97-1.35-4.49-1.95-1.02-.4-2.04-.78-3.03-1.25-.98-.46-2.11-1-2.82-1.84-.18-.22-.36-.49-.33-.75,0-.06.08-.17.22-.25.53-.31,1.28-.27,1.87-.27.91,0,1.82.09,2.72.21.97.12,1.94.29,2.9.46.58.1,1.16.24,1.74.29.26.02.24-.36,0-.4"/>
      <path class="cls-1" d="m381.33,268.85c1.71,1.6,3.75,2.56,5.91,3.41,2.58,1.02,5.08,2.18,7.65,3.25,5.84,2.43,12.03,3.85,18.29,4.7,6.27.85,12.54.86,18.85.94,3.21.04,6.44.1,9.64-.13,3.16-.23,6.29-.75,9.47-.8,11.7-.16,21.46,6.8,31.12,12.45,10.24,5.98,20.67,11.83,31.91,15.73,11.77,4.08,24.56,5.93,37.01,5.64,6.36-.14,12.57-1.05,18.82-2.19,6.08-1.1,12.16-1.87,18.27-2.72,5.88-.81,12.08-1.84,17.88-.03,5.44,1.7,9.13,5.88,12.83,9.95,8,8.82,15.48,18.25,24.84,25.71,8.54,6.81,18.22,12.22,28.32,16.34,10.94,4.46,22.37,7.01,33.76,9.99,2.95.77,5.88,1.64,8.78,2.61.43.15.75-.56.31-.75-10.96-4.72-22.82-6.65-34.08-10.48-10.57-3.6-20.81-8.37-30.13-14.53-4.72-3.12-9.22-6.56-13.43-10.36-4.5-4.07-8.43-8.66-12.43-13.21-3.61-4.1-7.17-8.62-11.38-12.12-4.01-3.33-8.74-4.91-13.93-4.98-5.74-.08-11.43,1.21-17.11,1.83-6.34.7-12.62,1.86-18.94,2.65-12.83,1.6-25.75,1.33-38.41-1.41-12.11-2.62-23.35-7.68-34.17-13.6-5.04-2.76-9.95-5.74-14.84-8.77-4.47-2.77-8.97-5.51-13.99-7.16-5.64-1.85-11.17-1.71-17-1.08-6.39.7-12.82.49-19.24.43-6.51-.06-13.05-.65-19.41-2.07-3.07-.69-6.1-1.54-9.05-2.66-2.71-1.03-5.28-2.37-7.99-3.39-2.64-.99-5.44-1.85-7.67-3.64-.31-.25-.75.16-.45.45"/>
      <path class="cls-1" d="m375.35,271.95c4.11,3.46,8.93,6,13.92,7.98,5.33,2.11,10.91,3.75,16.6,4.54,5.53.77,11.05,1.04,16.63,1.06,6.47.02,12.92.21,19.37-.53,5.9-.67,12.43-1.79,18.18.32,2.75,1.01,5.21,2.79,7.58,4.48,2.35,1.69,4.76,3.24,7.19,4.8,5.22,3.33,10.28,6.86,15.77,9.74,5.66,2.97,11.39,5.82,17.13,8.62,10.3,5.03,21.47,8.4,33,8.58,12.59.19,24.68-3.29,36.73-6.46,3.18-.84,6.31-1.54,9.59-1.89,2.9-.31,5.8-.51,8.69-.91,3.22-.45,6.68-1.1,9.83.02,2.63.94,4.74,2.85,6.5,4.97,3.94,4.74,7.2,10.21,10.54,15.38,3.19,4.94,6.23,9.89,10.06,14.36,7.43,8.68,16.04,15.87,26.11,21.27,5.1,2.73,10.4,5.07,15.73,7.33,5.55,2.34,11.07,4.32,16.93,5.73,2.94.71,5.91,1.27,8.87,1.92.59.13.84-.76.25-.91-6.01-1.62-12.13-2.91-18-4.97-5.56-1.94-10.99-4.43-16.33-6.89-5.16-2.38-10.23-4.99-14.98-8.12-4.95-3.26-9.42-7.17-13.62-11.35-8.74-8.69-14.54-19.5-21.4-29.62-2.66-3.92-5.52-8.25-10.16-9.99-2.6-.98-5.39-.82-8.1-.45-3.04.41-6.07.83-9.13,1.13-6.04.61-11.72,2.23-17.59,3.7-6.37,1.61-12.8,3.12-19.32,3.97-12.11,1.59-24.19.2-35.65-4.01-5.87-2.15-11.41-5.04-17.02-7.79-5.59-2.74-11.19-5.46-16.44-8.82-5.01-3.22-10.08-6.38-14.83-9.97-2.23-1.69-4.51-3.36-7.12-4.42-2.3-.94-4.77-1.27-7.24-1.32-6.34-.13-12.62,1.27-18.96,1.38-6.13.11-12.35.09-18.48-.25-11.47-.64-23.14-4.05-33.42-9.12-2.44-1.2-4.85-2.47-7.26-3.73-.13-.07-.3.12-.17.22"/>
      <path class="cls-1" d="m375.09,281.89c1.73,1.73,3.65,3.38,5.82,4.53,2.4,1.27,5.09,1.98,7.72,2.62,6.2,1.51,12.45,2.37,18.81,2.81,6.74.48,13.76,1.42,20.5.61,5.06-.61,10.05-1.72,15.12-2.29,2.45-.27,4.97-.65,7.44-.65,2.53,0,5.04.58,7.44,1.33,2.4.74,4.74,1.68,6.97,2.84,2.07,1.08,3.75,2.49,5.56,3.96,4.88,3.96,9.87,7.87,15.03,11.45,5.03,3.49,10.32,5.99,16.06,8.06,6.28,2.26,12.68,3.92,19.07,5.82,6.19,1.84,12.29,3.39,18.77,3.58,13.16.39,26.19-1.91,38.86-5.28,6.32-1.68,12.72-3.66,19.34-3.23,2.76.18,5.66.71,8.15,1.97,2.63,1.33,4.54,3.78,6.16,6.16,3.41,4.99,6.1,10.47,9.35,15.57,3.46,5.43,7.09,10.8,10.96,15.94,3.07,4.06,6.54,7.81,10.59,10.92,4.7,3.6,10.07,6.13,15.46,8.5,11.68,5.15,24.02,9.41,36.54,11.95,2.97.6,5.97,1.04,9,1.29.74.06.73-1.08,0-1.15-12.77-1.23-25.49-5.45-37.39-10.05-11.09-4.29-22.04-9.13-30.09-18.17-4.1-4.59-7.55-9.8-10.98-14.9-3.51-5.22-6.76-10.57-9.82-16.06-2.43-4.36-5.24-9.4-10-11.53-4.86-2.16-10.52-2.09-15.67-1.27-6.39,1.02-12.57,3.18-18.85,4.66-6.52,1.54-13.14,2.75-19.83,3.32-6.72.57-13.66.83-20.3-.47-6.27-1.23-12.42-3.3-18.57-5.01-6.37-1.77-13.03-3.74-18.95-6.74-5.47-2.76-10.34-6.52-15.21-10.21-2.75-2.09-5.45-4.22-8.09-6.45-1.52-1.29-2.97-2.41-4.74-3.35-3.98-2.11-8.44-3.71-12.92-4.27-4.2-.53-8.7.2-12.88.76-2.74.37-5.45.85-8.18,1.32-3.45.6-6.81.77-10.31.64-6.66-.24-13.41-.71-20.03-1.49-3.35-.4-6.68-1-9.98-1.73-2.8-.62-5.68-1.2-8.35-2.27-2.68-1.07-5.05-2.54-7.23-4.43-.25-.22-.61.13-.37.37"/>
      <path class="cls-1" d="m585.89,336.29c2.77-.12,5.57.64,8.12,1.69,2.35.97,4.79,2.26,6.63,4.04,1.42,1.38,3.36,3.86,2.09,5.91-.48.78-1.33,1.29-2.14,1.69-.94.47-1.94.8-2.94,1.12-.93.3-1.87.56-2.78.91-1.25.49-2.5.94-3.84,1.12-1.4.18-2.8.06-4.06-.59-1.22-.63-2.31-1.49-3.26-2.48-1.6-1.67-2.54-3.65-2.74-5.94-.16-1.82.04-3.82,1.07-5.37,1.24-1.87,3.52-2.17,5.61-1.96,2.86.29,5.52,1.54,8.26,2.33.65.18,1.29.36,1.95.49.22.05.31-.27.09-.35-2.97-.99-5.71-2.59-8.76-3.36-2.41-.61-5.57-.85-7.52,1.03-1.54,1.49-2.06,3.77-2.07,5.84,0,2.27.57,4.6,1.89,6.48.89,1.27,2.01,2.37,3.27,3.29,1.19.86,2.49,1.59,3.95,1.8,1.56.22,3.14,0,4.63-.45,1.14-.34,2.22-.82,3.35-1.17,2.15-.67,4.55-1.25,6.29-2.77.86-.76,1.39-1.8,1.43-2.95.04-1.29-.53-2.54-1.26-3.58-1.6-2.25-3.97-3.85-6.45-4.99-2.76-1.27-5.72-2.14-8.78-2.11-.69,0-1.38.07-2.06.18-.1.02-.08.18.02.17"/>
      <path class="cls-1" d="m581.95,330.56c-2.25-.12-4.51-.14-6.57.91-1.92.98-3.3,2.78-3.85,4.86-.52,1.96-.3,4.09.28,6.01.62,2.05,1.76,3.89,2.95,5.67,2.49,3.72,5.57,7.16,9.29,9.68,3.57,2.42,7.87,4.02,12.22,3.75,7.43-.46,15.2-5.55,16.14-13.39.22-1.79.06-3.71-.63-5.39-.61-1.46-1.58-2.73-2.74-3.79-2.63-2.42-6.05-3.9-9.39-5.07-1.67-.58-3.37-1.09-5.07-1.56-1.73-.48-3.46-1-5.22-1.34-2.69-.52-5.43-.66-8.16-.77-1.22-.05-2.41-.03-3.57.37-.96.32-1.84.81-2.66,1.39-.89.62-1.69,1.3-2.45,2.06-.13.13.04.33.19.25,1.76-.97,3.34-2.3,5.33-2.77,1.11-.27,2.23-.25,3.36-.19,1.34.06,2.68.13,4.01.25,3.76.34,7.45,1.36,11.07,2.41,3.29.95,6.59,2.09,9.52,3.89,2.59,1.6,4.89,3.86,5.4,6.97.6,3.59-.67,7.09-3.13,9.71-2.43,2.59-5.72,4.27-9.14,5.12-3.74.93-7.77.6-11.32-.92-3.91-1.67-7.19-4.68-9.82-7.96-1.33-1.65-2.51-3.42-3.57-5.26-.98-1.69-1.74-3.48-1.97-5.44-.22-1.86,0-3.86,1.01-5.48,1.14-1.82,3.12-2.91,5.17-3.37,1.09-.24,2.21-.34,3.32-.41.11,0,.11-.17,0-.18"/>
      <path class="cls-1" d="m568.62,330.61c-.82,1.1-1.53,2.28-2.01,3.56-.46,1.2-.6,2.54-.52,3.83.18,2.92,1.52,5.66,2.81,8.23,2.66,5.29,6.24,10.16,10.64,14.14,3.82,3.46,8.33,6.35,13.38,7.58,5.2,1.27,10.6.51,15.36-1.91,4.3-2.19,7.41-5.99,8.85-10.57.77-2.47,1.16-5.16.91-7.75-.25-2.56-1.13-4.96-2.34-7.21-1.27-2.37-2.76-4.69-4.37-6.85-1.47-1.96-3.16-3.75-5.14-5.21-2.01-1.48-4.29-2.56-6.69-3.25-2.99-.87-6.12-1-9.21-.73-2.93.25-5.77.98-8.68,1.37-2.58.35-5.21.5-7.75,1.1-2.23.53-4.58,1.42-5.99,3.32-.66.89-1.11,1.92-1.42,2.98-.3,1.06-.54,2.29-.43,3.39.1,1.02.37,2.06.67,3.03.08.26.49.15.41-.11-.15-.47-.27-1-.3-1.49-.03-.57.08-1.13.11-1.7.06-1.09.18-2.15.52-3.2.31-.98.78-1.95,1.47-2.72.71-.81,1.66-1.36,2.64-1.78,2.25-.96,4.76-1.25,7.17-1.52,1.22-.13,2.44-.26,3.65-.44,1.34-.2,2.65-.5,3.98-.73,2.95-.5,5.97-.81,8.97-.54,2.64.23,5.26.99,7.62,2.21,2.06,1.06,3.89,2.48,5.49,4.16,1.74,1.83,3.11,3.92,4.46,6.04,1.32,2.07,2.6,4.2,3.37,6.55.8,2.43.96,4.96.58,7.49-.67,4.48-2.72,8.7-6.34,11.52-3.92,3.06-9.26,4.5-14.18,4.18-4.9-.31-9.54-2.43-13.41-5.4-4.38-3.35-7.99-7.7-10.84-12.4-1.49-2.45-2.83-4.99-3.92-7.66-.53-1.28-.99-2.6-1.15-3.98-.14-1.25-.02-2.5.24-3.73.28-1.33.82-2.57,1.49-3.74.05-.08-.07-.14-.12-.07"/>
      <path class="cls-1" d="m449.23,300.47c1.38.74,2.9,1.23,4.25,2.05,1.12.68,2.45,1.92,2.33,3.38-.08.98-1.14,1.43-1.95,1.66-1.11.31-2.31.38-3.46.33-1.27-.05-2.5-.49-3.64-1.04-1.36-.65-2.8-1.54-3.69-2.79-.59-.82-.82-1.98.1-2.65.91-.66,2.14-.81,3.24-.84,1.44-.04,2.8.29,4.16.77,1.76.63,3.63,1.54,4.76,3.08.17.23.63.1.51-.21-.72-1.79-2.32-3.03-4.06-3.75-1.46-.61-3.05-1.06-4.64-1.11-2.33-.07-6.5.75-5.48,4.03.49,1.56,1.92,2.69,3.25,3.53,1.38.87,2.93,1.72,4.55,2.02,1.33.25,2.71.2,4.03-.06,1.21-.24,2.61-.76,3.18-1.95.8-1.65-.44-3.49-1.76-4.43-1.65-1.18-3.73-1.52-5.57-2.3-.15-.06-.25.18-.11.26"/>
      <path class="cls-1" d="m447.49,296.31c4.54,1.35,10.4,3.02,12.11,8.03.36,1.05.39,2.17,0,3.22-.36.97-1.07,1.8-1.83,2.49-1.77,1.62-4.05,2.39-6.41,2.56-4.72.34-10.11-1.03-13.43-4.56-1.42-1.5-2.54-3.54-1.53-5.57.94-1.87,2.87-3.03,4.69-3.9,2.08-.99,4.33-1.44,6.63-1.32,3.01.16,5.86,1.18,8.6,2.37.62.27,1.25.56,1.85.87.21.11.37-.18.18-.31-2.59-1.78-5.54-3.13-8.6-3.84-1.52-.36-3.16-.61-4.73-.45-1.14.12-2.26.42-3.33.83-2.23.86-4.34,2.18-5.75,4.14-1.42,1.96-1.39,4.34-.04,6.33,3,4.41,8.84,6.21,13.95,6.29,2.51.04,5.08-.42,7.32-1.57,2.2-1.14,4.08-3.16,4.13-5.76.05-2.83-1.98-5.2-4.24-6.65-2.33-1.49-4.98-2.32-7.65-2.95-.63-.15-1.27-.29-1.9-.42-.11-.02-.15.13-.04.17"/>
      <path class="cls-1" d="m453.41,294.1c4.75,3.03,14.95,6.16,12.31,13.7-1.13,3.22-4.38,5.25-7.38,6.49-3.29,1.37-6.81,1.85-10.34,1.77-1.29-.04-2.61-.31-3.89-.53-1.56-.26-3.12-.54-4.65-.95-3.07-.81-6.32-1.89-8.78-3.97-1.02-.86-1.89-1.94-2.28-3.24-.43-1.43-.2-2.93.36-4.29,1.45-3.54,4.89-5.86,8.29-7.31,3.44-1.47,7.3-2.31,11.05-2.05,2.6.17,5.17.97,7.53,2.04,2.46,1.11,4.81,2.4,7.01,3.97,1.01.72,2.03,1.46,2.99,2.25.25.21.6-.12.37-.37-3.77-3.98-8.68-7.18-13.99-8.63-4.27-1.16-8.65-.76-12.83.6-3.87,1.26-7.77,3.39-10.16,6.77-1.89,2.67-2.55,6.3-.5,9.07,1.92,2.59,5.18,3.93,8.15,4.88,3.08.99,6.27,1.63,9.45,2.13,1.55.25,3.05.51,4.63.5,1.91-.01,3.82-.25,5.68-.67,3.71-.85,7.49-2.52,9.69-5.77,1.02-1.5,1.62-3.36,1.56-5.18-.06-1.83-.89-3.45-2.16-4.73-2.67-2.72-6.5-3.97-9.91-5.46-.72-.31-1.44-.66-2.14-1.03-.03-.01-.05.02-.02.04"/>
      <path class="cls-1" d="m382.17,290.77c1.56,1.39,3.83,1.78,5.82,2.14,2.85.52,5.69,1.12,8.53,1.64,6.67,1.22,13.41,2.01,20.13,2.95,2.41.34,5.39.94,6.74,3.2,1.65,2.78.97,6.46,1.98,9.48,1.73,5.19,6.72,8.78,11.7,10.52,5.69,2,12.48,2.02,18.43,1.41,2.7-.28,5.4-.93,7.71-2.4,2.14-1.37,3.52-3.36,4.94-5.4,1.75-2.52,4.06-5.42,7.54-4.71,2.81.58,5.16,2.98,7.45,4.58,5.34,3.71,10.7,7.22,16.99,9.13,6.88,2.09,14.15,3.12,21.19,4.58,6.96,1.44,13.98,1.56,21.05,1.96,3.57.2,7.16.34,10.73.68,2.85.28,6.79.36,8.6,2.93,1.33,1.89,1.82,4.29,2.3,6.5.49,2.2,1.03,4.34,1.77,6.47,3.37,9.75,9.22,20,18.55,25.1,5.06,2.76,10.92,3.86,16.59,2.63,6.55-1.41,11.82-5.56,17.6-8.68,1.73-.93,3.59-1.71,5.59-1.43,1.77.25,3.48,1.07,5.01,1.96,2.65,1.56,4.96,3.61,7.34,5.54,2.58,2.1,5.31,4,8.02,5.91,2.81,1.98,5.54,4.06,8.63,5.6,3.09,1.54,6.32,2.85,9.49,4.23,3.15,1.37,6.34,2.63,9.62,3.65,6.73,2.1,13.42,4.44,20.43,5.49,3.42.51,6.86.88,10.3,1.23.58.06.73-.96.14-1.04-7.14-.96-14.44-1.91-21.31-4.17-6.8-2.25-13.65-4.01-20.25-6.86-3.14-1.35-6.37-2.59-9.37-4.25-3.03-1.68-5.79-3.86-8.62-5.85-2.77-1.96-5.47-3.98-8.09-6.13-2.23-1.83-4.52-3.67-7.13-4.95-2.55-1.25-5.11-1.89-7.86-.92-3.07,1.09-5.82,3.13-8.59,4.79-5.96,3.58-12.41,6.19-19.46,4.76-11.47-2.33-19.18-12.3-23.61-22.51-1.07-2.47-2.01-5.02-2.74-7.62-.59-2.08-.92-4.23-1.54-6.31-.57-1.88-1.37-3.89-2.93-5.17-1.87-1.54-4.72-1.67-7.02-1.92-7.13-.78-14.37-.52-21.53-.95-7.4-.44-14.44-2.19-21.7-3.55-6.88-1.28-13.75-3.21-19.85-6.72-2.76-1.59-5.41-3.39-8.06-5.17-2.24-1.51-4.39-3.53-7.05-4.29-5.45-1.55-8.05,4.13-10.84,7.57-4.17,5.14-11.17,5.05-17.21,4.98-6.68-.09-13.54-1.34-18.55-6.11-2.56-2.45-3.81-5.39-4.23-8.87-.29-2.4-.35-5.29-2.06-7.17-1.42-1.56-3.64-2.24-5.62-2.72-2.85-.69-5.8-1.1-8.7-1.55-6.49-1.02-13.04-2.18-19.57-2.86-2.31-.24-5.26-.21-7.25-1.56-.13-.09-.27.11-.16.21"/>
      <path class="cls-1" d="m381.67,296.8c7,1.23,13.89,3.02,20.95,3.95,3.11.41,6.16.09,9.27.15,2.8.05,5.94.58,7.74,2.93,1.96,2.57,2.91,5.82,3.82,8.88.75,2.54,1.34,5.14,2.97,7.28,3.38,4.42,8.82,5.83,13.98,7.01,6.37,1.47,12.89,2.38,19.34.86,2.57-.61,5.14-1.56,7.27-3.16,1.75-1.33,3.03-3.17,4.47-4.81,1.4-1.59,3.33-3.83,5.66-3.74,1.35.05,2.57,1.02,3.64,1.74,1.48,1,2.9,2.11,4.31,3.22,2.37,1.86,4.76,3.75,7.41,5.21,2.66,1.47,5.56,2.46,8.51,3.17,6.35,1.53,12.88,1.73,19.38,2.18,6.95.48,13.89,1.22,20.85,1.51,6.26.26,12.61.89,16.46,6.47,3.35,4.87,4.46,11.07,6.84,16.44,2.64,5.96,5.89,11.88,9.9,17.03,3.42,4.41,7.73,8.34,13.06,10.25,2.96,1.07,6.33,1.79,9.49,1.63,3.17-.17,6.04-1.38,8.65-3.15,4.54-3.09,8.32-7.41,13.19-9.99,2.58-1.37,5.4-1.98,8.11-.59,2.81,1.44,4.84,3.95,7.12,6.04,2.25,2.06,4.59,4.08,7.09,5.84,2.79,1.97,5.85,3.42,8.92,4.89,6.22,2.96,12.58,5.6,19.21,7.53,3.51,1.03,6.97,2.2,10.47,3.27,3.48,1.07,7,2.06,10.44,3.26,1.56.55,3.13,1.12,4.75,1.5,1.57.37,3.21.31,4.8.19.99-.07,1.34-1.58.25-1.83-3.22-.72-6.42-1.83-9.55-2.89-3.48-1.18-7.01-2.07-10.62-2.76-3.7-.71-7.44-1.2-11.06-2.25-3.38-.98-6.7-2.15-9.96-3.46-6.49-2.61-13.37-5.38-18.89-9.75-2.45-1.94-4.79-4.04-7-6.24-1.95-1.94-3.97-4.15-6.58-5.19-4.71-1.88-9.65,1.97-13.09,4.76-4.71,3.82-9.54,9.06-15.94,9.54-6.62.5-13.27-2.54-18-7-4.68-4.42-8.07-10.11-11.07-15.75-1.7-3.2-3.24-6.5-4.5-9.91-.98-2.64-1.77-5.34-2.86-7.93-2.06-4.89-5.04-8.77-10.34-10.24-2.84-.79-5.83-.93-8.76-1.04-3.24-.12-6.46-.31-9.7-.55-7.17-.53-14.38-.74-21.54-1.34-6.62-.55-13.46-1.74-19.17-5.34-2.79-1.76-5.23-4-7.82-6.03-1.74-1.37-3.89-3.47-6.21-3.62-4.22-.27-7.05,4.86-9.5,7.49-4.07,4.38-11.17,5.36-16.85,5.12-3.77-.16-7.48-.93-11.15-1.78-2.93-.68-5.8-1.39-8.47-2.84-2.66-1.45-4.85-3.54-5.9-6.42-1.04-2.85-1.68-5.84-2.81-8.67-.88-2.19-2.01-4.62-4-6.02-1.89-1.33-4.25-1.64-6.5-1.82-6.74-.55-13.33-1.88-20.01-2.82-3.46-.49-6.87-.9-10.37-.88-.24,0-.31.39-.06.43"/>
      <path class="cls-1" d="m377.2,299.39c3.86.18,7.55,1.39,11.23,2.46,3.48,1.01,7.02,1.7,10.6,2.25,3.34.51,6.74.78,10.07,1.38,3.43.63,6.32,2.13,8.31,5.07,1.65,2.42,2.59,5.17,3.91,7.75,1.27,2.49,2.81,4.87,4.68,6.95,4.08,4.54,9.79,7.4,15.64,8.91,5.94,1.53,12.63,1.91,18.68.77,2.72-.51,5.33-1.54,7.58-3.15,2.11-1.51,3.71-3.51,5.52-5.34,1.63-1.65,4.5-4.29,7.05-3.04,1.16.57,1.87,1.82,2.77,2.7,1.12,1.09,2.42,2.04,3.76,2.86,5.62,3.45,12.17,5.93,18.72,6.77,7.28.93,14.8.28,22.1-.02,3.75-.15,7.51-.21,11.25.09,3.28.26,7.05.58,9.98,2.23,2.91,1.64,4.16,4.77,5.49,7.64,1.55,3.34,3.24,6.63,4.93,9.9,3.29,6.37,6.2,12.83,9.15,19.35,2.66,5.88,5.54,11.74,10.48,16.05,4.32,3.77,9.82,6.48,15.61,6.78,5.26.27,9.78-2.47,13.2-6.26,1.76-1.96,3.26-4.13,4.61-6.39,1.47-2.47,2.65-5.14,4.51-7.36,2.1-2.49,5.03-4.15,8.08-2.16,3.03,1.98,4.71,5.41,7.03,8.06,2.04,2.32,4.69,4.05,7.19,5.83,2.87,2.05,5.79,3.99,8.82,5.8,5.95,3.57,12.39,6.39,18.89,8.82,6.76,2.53,13.65,4.6,20.73,6.02,3.56.71,7.1,1.34,10.68,1.92.78.13,1.1-.94.33-1.2-6.97-2.4-14.39-3.24-21.46-5.37-6.87-2.06-13.61-4.55-20.14-7.53-6.38-2.91-12.7-6.23-18.41-10.31-3.02-2.16-5.51-4.33-7.74-7.32-1.74-2.34-3.65-5.12-6.42-6.32-5.07-2.21-9.03,3.12-11.16,6.97-2.69,4.86-5.61,9.98-10.32,13.17-5.34,3.62-11.83,2.76-17.36,0-6.02-3.01-10.23-7.9-13.34-13.76-3.35-6.31-5.83-13.04-9.11-19.39-1.7-3.29-3.47-6.54-5.14-9.84-1.6-3.15-2.84-6.56-4.59-9.62-1.25-2.16-3.13-4.03-5.26-5.33-2.62-1.61-5.99-1.83-8.99-2.12-7.53-.72-15.05,0-22.57.37-3.68.18-7.41.34-11.08-.03-3.65-.36-7.22-1.29-10.66-2.55-3.39-1.24-6.83-2.7-9.66-4.99-1.06-.86-1.96-1.81-2.82-2.87-.7-.86-1.38-1.79-2.48-2.16-2.09-.71-4.04.72-5.57,2.01-1.95,1.64-3.49,3.66-5.33,5.42-4.87,4.68-11.65,5.14-18.05,5.04-7.04-.1-14.18-1.82-20.07-5.8-5.12-3.45-8.35-8.63-10.74-14.21-1.06-2.46-2.09-5.07-4.12-6.91-2.14-1.92-4.99-2.55-7.75-2.9-7.27-.94-14.44-1.84-21.51-3.87-3.22-.92-6.38-1.74-9.76-1.69-.3,0-.29.45,0,.46"/>
      <path class="cls-1" d="m382.08,307.11c2.55.28,5.04.77,7.57,1.16,3.79.59,7.68.64,11.49,1.14,3.32.44,6.77,1.05,9.64,2.88,2.79,1.78,4.76,4.57,6.21,7.49,1.65,3.31,3.23,6.37,5.57,9.26,2.33,2.87,4.72,5.66,7.44,8.17,2.64,2.43,5.48,4.65,8.37,6.8,2.68,2,5.35,4.09,8.21,5.82,2.55,1.54,5.45,2.85,8.5,2.78,3.12-.07,6.01-1.81,8.5-3.57,2.69-1.91,5.06-4.22,7.18-6.73,1.99-2.37,3.61-5.05,5.68-7.35.97-1.08,2.1-2.16,3.47-2.7,1.93-.75,3.64.06,5.32,1.02,3,1.71,6.02,3.36,9.25,4.63,7.05,2.78,15.44,2.4,22.87,2.12,4.03-.15,8.05-.47,12.07-.75,3.86-.27,7.84-.59,11.68-.03,3.3.48,6.48,1.74,8.39,4.61,1.94,2.93,2.62,6.53,4.25,9.64,3.76,7.18,7.77,14.33,10.34,22.04,2.23,6.69,4.02,13.55,7.55,19.71,2.86,5,6.85,9.58,12.3,11.78,5.23,2.1,11.62,2.18,16.89.2,5.39-2.03,8.91-6.06,11.18-11.24,1.19-2.71,2.24-5.48,3.57-8.12,1.29-2.58,2.93-5.47,5.41-7.08,4.04-2.63,7.93,5.25,9.7,7.79,1.54,2.21,3.49,4.15,5.34,6.11,2.43,2.58,5.06,4.78,8.07,6.65,3.1,1.92,6.37,3.83,9.73,5.26,3.5,1.5,7.21,2.44,10.83,3.61,7.76,2.51,15.33,5.62,23.04,8.27,3.84,1.33,7.48,2.85,11.13,4.66,1.68.83,3.14-1.74,1.46-2.5-7.44-3.36-15.26-5.54-22.99-8.13-3.86-1.29-7.73-2.56-11.66-3.66-3.67-1.03-7.39-1.82-10.93-3.28-3.61-1.48-7.15-3.54-10.46-5.62-3.23-2.02-5.89-4.53-8.44-7.35-1.78-1.96-3.47-3.84-4.92-6.04-1.3-1.97-2.6-4.03-4.31-5.68-8.82-8.5-14.68,13.37-17.7,18.14-3.32,5.26-9.34,8.02-15.43,8.24-6.75.25-12.84-2.28-17.25-7.42-4.55-5.31-7.04-12.04-9.14-18.61-1.16-3.64-2.26-7.3-3.7-10.84-1.46-3.56-3.29-6.98-5.04-10.4-1.83-3.56-3.95-7.05-5.35-10.82-1.12-3.02-2.18-6.04-4.68-8.22-5.01-4.38-12.74-3.6-18.88-3.1-7.99.65-16.02,1.43-24.04.92-4.12-.26-8.17-.82-11.97-2.5-1.63-.72-3.27-1.51-4.8-2.43-1.54-.93-2.96-2.14-4.63-2.83-5.66-2.36-9.35,4.15-12.15,7.89-2.1,2.82-4.47,5.49-7.19,7.72-2.68,2.2-6.19,4.7-9.79,4.7-3.5,0-6.75-1.91-9.56-3.79-2.85-1.91-5.63-3.97-8.38-6.04-6.1-4.6-11.91-10.05-16.12-16.5-2.04-3.13-3.17-6.73-5.48-9.7-1.57-2.02-3.47-3.73-5.78-4.84-2.93-1.41-6.23-1.88-9.39-2.54-3.85-.8-7.74-1.57-11.63-2.18-1.41-.22-2.65-.32-4.06-.13-.84.11-1.68.25-2.52.4-.65.12-.41,1.01.14,1.07"/>
      <path class="cls-1" d="m379.25,397.91c2.36,1.78,4.98,3.1,7.68,4.26,2.55,1.09,5.13,2.21,7.74,3.16,5.47,1.99,11.36,2.61,17.13,2.99,5.93.38,11.85-.1,17.35-2.47,4.63-2,9.14-4.98,12.57-8.7,6.8-7.39,9.27-17.65,12.7-26.8,1.02-2.73,2.09-5.44,3.29-8.1,1.15-2.54,2.44-4.78,4.49-6.69,1.88-1.76,4.03-3.21,5.97-4.9,2.11-1.83,4.09-3.87,6.06-5.86,1.02-1.03,2.02-2.09,2.97-3.19.89-1.03,1.69-2.45,2.94-3.07,2.31-1.15,4.95,1.12,6.79,2.3,4.41,2.85,9.42,4.65,14.61,5.46,5.33.84,10.76.76,16.1.04,5.16-.7,10.2-2.15,15.4-2.48,2.53-.16,5.13-.13,7.59.54,2.45.66,4.45,2,6.07,3.94,1.65,1.97,2.77,4.29,3.77,6.63,1.17,2.74,2.47,5.44,3.75,8.13,2.61,5.48,4.94,11.12,6.64,16.96.82,2.84,1.43,5.75,1.57,8.72.13,3.01-.3,5.99-.48,8.99-.19,3.21.14,6.4.43,9.59.25,2.81.31,5.69.99,8.44,1.3,5.21,4.34,9.65,6.87,14.31,2.63,4.85,4.83,10,6.25,15.34,1.43,5.31,2.14,10.98.8,16.39-.62,2.52-1.69,4.99-2.89,7.3-.24.47.42,1.07.78.6,1.62-2.1,2.84-4.28,3.65-6.82.83-2.58,1.18-5.3,1.15-7.99-.06-5.62-1.54-11.17-3.57-16.38-2-5.12-4.73-9.77-7.5-14.49-1.39-2.37-2.72-4.82-3.64-7.43-1.02-2.86-1.15-5.88-1.49-8.88-.34-3.06-.69-6.15-.57-9.22.13-3.13.62-6.24.5-9.38-.23-5.89-2.28-11.47-4.34-16.93-2.2-5.82-5.22-11.24-7.59-16.99-1.78-4.34-3.9-9.09-8.35-11.3-4.59-2.28-9.91-1.83-14.8-1-5.35.91-10.57,2.31-16,2.68-5.48.37-11.01-.04-16.27-1.64-2.71-.82-5.31-1.96-7.75-3.41-1.95-1.17-3.87-2.87-6.14-3.34-2.64-.55-4.07,1.21-5.6,3.05-1.94,2.33-4.1,4.46-6.28,6.57-1.88,1.83-3.75,3.58-5.82,5.2-1.96,1.54-3.96,3.09-5.48,5.09-1.75,2.3-3,5.01-4.1,7.66-1.02,2.46-1.96,4.96-2.85,7.47-1.74,4.91-3.3,9.92-5.58,14.62-2.23,4.59-5.15,8.68-9.25,11.78-4.35,3.3-9.4,5.86-14.75,7.04-6.02,1.32-12.48,1.19-18.58.57-2.9-.3-5.76-.87-8.54-1.78-2.82-.93-5.61-2.07-8.39-3.11-2.73-1.02-5.37-2.21-7.79-3.86-.26-.18-.48.23-.24.41"/>
      <path class="cls-1" d="m377.71,407.1c2.45,1.31,5.07,2.22,7.68,3.14,2.76.98,5.49,2,8.3,2.83,5.59,1.65,11.39,2.84,17.18,3.52,5.81.69,11.83.57,17.36-1.52,4.78-1.81,8.99-4.82,12.65-8.36,3.7-3.58,6.86-7.68,9.76-11.92,3.09-4.51,5.26-9.45,6.53-14.78.68-2.84,1.22-5.69,2.13-8.47.9-2.74,2.05-5.38,3.35-7.95,1.23-2.43,2.54-4.83,4.06-7.09,1.6-2.38,3.5-4.39,5.59-6.34,1.03-.95,2.11-1.87,3.03-2.93.81-.93,1.48-1.97,2.32-2.88.81-.89,1.75-1.58,2.98-1.68,1.09-.09,2.18.22,3.19.61,2.08.8,3.92,2.09,5.87,3.16,2.52,1.37,5.08,2.7,7.75,3.77,2.65,1.07,5.43,1.85,8.29,2.04,3.03.2,6.08-.05,9.08-.45,6.03-.81,11.95-2.35,18.01-2.9,2.4-.22,4.97-.47,7.32.18,1.74.48,3.29,1.45,4.57,2.71,2.73,2.67,4.31,6.35,5.62,9.86,1.47,3.9,2.75,7.84,4.4,11.68,2.36,5.5,4.67,11.01,4.36,17.12-.16,3.11-.79,6.15-1.25,9.22-.46,3.02-.66,6.07-.82,9.11-.16,3.01-.02,5.96.82,8.87.79,2.75,1.87,5.46,2.97,8.1,2.14,5.1,4.62,10.04,6.59,15.22,2.05,5.43,3.28,11.03,3.07,16.85-.11,2.93-.3,5.81-1.12,8.63-.3,1.04,1.24,1.43,1.6.44,1-2.73,1.77-5.63,1.89-8.55.13-2.99-.13-5.98-.67-8.92-1.02-5.56-3.37-10.61-5.88-15.62-2.59-5.17-5.23-10.32-7.09-15.81-1.02-3.03-1.27-6.02-1.11-9.2.17-3.25.4-6.5.92-9.72.46-2.92,1.03-5.84,1.16-8.79.13-2.93-.28-5.82-1.1-8.63-1.49-5.09-4.06-9.79-5.77-14.8-1.25-3.64-2.36-7.35-4.11-10.79-1.61-3.18-3.88-6.24-7.26-7.67-1.9-.8-3.87-.96-5.92-.89-2.96.09-5.91.49-8.82.98-6.12,1.03-12.2,2.54-18.43,2.68-3.06.07-6-.3-8.91-1.25-2.92-.97-5.67-2.35-8.38-3.78-2.01-1.06-3.92-2.32-5.97-3.3-1.8-.86-3.93-1.63-5.93-1.06-2.28.66-3.48,2.89-4.93,4.57-1.88,2.16-4.27,3.83-6.21,5.94-3.64,3.95-6.32,8.88-8.49,13.77-1.16,2.62-2.11,5.32-2.85,8.08-.73,2.78-1.19,5.62-2.01,8.38-1.61,5.37-4.38,10.04-7.68,14.53-6.34,8.63-14.63,16.76-25.68,18.3-6.1.85-12.3-.09-18.28-1.29-2.93-.58-5.83-1.25-8.69-2.09-2.88-.83-5.67-1.89-8.52-2.79-2.71-.86-5.47-1.65-8.07-2.81-.49-.22-.92.47-.43.73"/>
      <path class="cls-1" d="m379.9,422.13c1.33,3.4,5.64,4.9,8.81,5.93,5.12,1.65,10.42,2.99,15.73,3.82,2.92.45,5.86.8,8.78,1.25,2.82.42,5.67.72,8.52.37,4.95-.61,9.07-3.24,12.76-6.45,4.11-3.57,7.8-7.62,11.01-12.02,3.4-4.67,5.86-9.82,8.59-14.89,1.33-2.47,2.8-4.85,4.07-7.35,1.25-2.45,2.36-4.96,3.37-7.52,2.05-5.22,3.58-10.63,4.7-16.12.53-2.6,1.21-5.13,2.39-7.52.58-1.18,1.25-2.32,2.04-3.37.72-.97,1.58-1.78,2.39-2.67,2.88-3.17,5.73-8.11,10.77-6.65,2.46.71,4.53,2.4,6.66,3.75,2.26,1.43,4.52,2.88,6.95,4.02,5.04,2.38,10.51,2.84,16,2.09,5.75-.79,11.05-3.25,16.74-4.31,2.44-.46,5.18-.89,7.57.03,1.92.74,3.32,2.27,4.59,3.83,3.55,4.38,6.65,9.43,8.84,14.63,1.13,2.7,1.64,5.63,1.9,8.54.27,2.93.4,5.88.33,8.81-.07,3.08-.36,6.16-.92,9.2-.48,2.67-.9,5.35-1.15,8.06-.52,5.65-.37,11.34.71,16.91,1.11,5.68,2.93,11.19,4.28,16.82.68,2.86,1.25,5.75,1.55,8.68.3,2.96.53,6.2-.08,9.13-.54,2.61-1.75,5.05-2.61,7.56-.23.66.82.95,1.05.29.89-2.59,2.42-4.91,3.04-7.6.65-2.87.58-5.95.34-8.86-.48-5.84-2.05-11.45-3.64-17.08-1.56-5.56-3.02-11.15-3.39-16.94-.18-2.86-.17-5.73.02-8.58.19-2.95.69-5.82,1.17-8.73.96-5.84,1.02-11.78.42-17.66-.28-2.77-.75-5.53-1.76-8.13-1-2.58-2.39-5.06-3.77-7.44-1.46-2.52-3.07-4.96-4.77-7.32-1.18-1.63-2.41-3.29-4.05-4.48-4.03-2.92-9.85-1.21-14.14.15-5.67,1.81-11.14,3.88-17.18,3.83-2.89-.02-5.75-.44-8.46-1.45-2.54-.95-4.91-2.34-7.2-3.8-2.15-1.38-4.22-2.98-6.48-4.18-2.02-1.07-4.39-1.73-6.64-.98-2.04.69-3.61,2.28-4.97,3.87-.71.81-1.38,1.66-2.07,2.49-.74.86-1.57,1.64-2.3,2.51-1.6,1.92-2.81,4.12-3.72,6.45-.97,2.49-1.42,5.07-2,7.66-1.24,5.57-2.92,11.04-5.14,16.29-2.23,5.26-5.24,10.08-7.86,15.13-2.67,5.13-5.41,10.11-9.03,14.64-3.39,4.24-7.28,8.33-11.67,11.54-2,1.46-4.19,2.69-6.58,3.39-2.74.8-5.61.83-8.43.53-2.89-.3-5.74-.91-8.63-1.23-3.12-.35-6.2-.91-9.27-1.61-4.53-1.04-9.26-2-13.53-3.92-1.67-.75-3.45-1.78-4.29-3.48-.1-.2-.44-.06-.36.15"/>
      <path class="cls-1" d="m377.95,433.35c2.08,1.61,4.28,3.07,6.64,4.22,2.39,1.16,4.86,2.18,7.37,3.06,5.17,1.81,10.5,3.26,15.93,4.01,5.61.76,11.3.62,16.85-.48,5.08-1,9.68-2.96,13.9-5.97,4.1-2.94,8.18-6.23,11.63-9.92,1.73-1.85,3.27-3.87,4.47-6.1,1.2-2.25,2.08-4.66,2.93-7.07,1.9-5.38,4.07-10.65,6.02-16.02.49-1.36.94-2.75,1.51-4.08.52-1.21,1.12-2.37,1.64-3.57,1.08-2.51,1.7-5.22,2.25-7.9.57-2.76,1.02-5.55,1.74-8.28.71-2.67,1.63-5.26,2.79-7.77,1.11-2.39,2.32-4.73,3.76-6.93.74-1.13,1.56-2.18,2.42-3.21.72-.87,1.44-1.94,2.59-2.26,1.27-.36,2.47.22,3.52.89.98.63,1.96,1.27,2.93,1.92,2.18,1.45,4.33,2.93,6.6,4.23,4.61,2.63,9.71,3.96,15.02,3.98,2.77,0,5.55-.36,8.21-1.11,2.72-.76,5.34-1.79,8.1-2.44,1.41-.34,2.85-.61,4.29-.77,1.28-.14,2.69-.32,3.97-.1,2.25.38,4.17,1.97,5.67,3.59,1.59,1.71,2.89,3.68,4.15,5.63,1.36,2.11,2.58,4.35,3.37,6.74,1.74,5.24.87,11.11.19,16.47-.36,2.82-.77,5.63-1.13,8.45-.37,2.89-.54,5.77-.69,8.67-.3,5.88-.79,11.76-.85,17.65-.03,2.89-.11,5.8.09,8.68.19,2.83.58,5.65.78,8.48.2,2.84.18,5.68-.29,8.49-.44,2.64-1.1,5.26-1.89,7.82-.78,2.54-1.48,5.11-2.45,7.59-.26.66.81.95,1.07.29,1.01-2.6,2.3-5.07,3.24-7.7.92-2.58,1.68-5.21,2.08-7.93.84-5.67-.09-11.24-.55-16.9-.48-5.91-.22-11.87-.06-17.78.15-5.87-.02-11.71.67-17.55.68-5.75,1.72-11.47,1.86-17.27.06-2.57-.12-5.05-.9-7.52-.75-2.36-1.91-4.56-3.16-6.68-2.2-3.74-4.84-8.24-9-10.04-2.23-.97-4.65-.68-6.99-.34-2.84.41-5.61,1.2-8.33,2.12-2.79.94-5.49,1.86-8.44,2.18-2.86.31-5.77.19-8.61-.31-2.68-.47-5.19-1.27-7.61-2.53-2.37-1.24-4.61-2.72-6.83-4.21-1.05-.7-2.14-1.36-3.16-2.11-.86-.63-1.71-1.28-2.72-1.64-2.32-.84-4.1.42-5.62,2.06-3.52,3.81-6.03,8.69-7.95,13.48-2.13,5.3-2.81,10.91-4.22,16.4-.34,1.34-.67,2.69-1.17,3.97-.48,1.25-1.1,2.43-1.65,3.65-1.18,2.62-2.04,5.39-3.04,8.08-1.03,2.79-2.08,5.57-3.1,8.37-.9,2.48-1.64,5.02-2.57,7.5-.95,2.52-2.13,4.93-3.73,7.11-1.53,2.08-3.35,3.95-5.24,5.7-1.91,1.77-3.93,3.42-5.96,5.05-2.03,1.65-4.12,3.19-6.41,4.44-4.91,2.69-10.44,3.81-16,4.08-5.89.28-11.72-.53-17.37-2.23-5.13-1.55-10.29-3.18-15.19-5.39-2.4-1.08-4.79-2.16-7.09-3.46-.36-.2-.62.3-.31.53"/>
      <path class="cls-1" d="m377.05,451.76c4.76,2.54,9.84,4.1,15.09,5.25,5.27,1.15,10.9,1.12,16.26.82,5.16-.3,10.36-.88,15.45-1.8,4.94-.9,9.82-2.29,14.26-4.66,4.55-2.42,8.56-5.93,12.28-9.46,3.79-3.61,7.26-7.56,10.28-11.84,3.1-4.39,5.43-9.1,7.13-14.2,1.69-5.04,2.9-10.23,4.54-15.29.88-2.72,1.81-5.41,2.57-8.17.8-2.89,1.51-5.79,2.3-8.67.79-2.87,1.61-5.74,2.4-8.61.72-2.63,1.28-5.32,2.15-7.9.44-1.28.98-2.54,1.73-3.67.49-.74,1.14-1.49,2.02-1.74.87-.24,1.76.09,2.53.48,1.07.55,2.08,1.24,3.09,1.88,4.08,2.57,8.44,4.72,13.09,6.06,4.74,1.36,9.89,2.01,14.82,1.69,2.75-.18,5.5-.68,8.17-1.33,1.18-.29,2.43-.61,3.63-.28,1.02.28,1.94.89,2.74,1.56,1.68,1.41,3.06,3.17,4.28,4.98,1.36,2.02,2.54,4.16,3.34,6.47,1.84,5.27,1.53,10.83.76,16.27-.4,2.81-.89,5.61-1.22,8.44-.34,2.95-.67,5.9-1.03,8.85-.71,5.83-1.39,11.7-1.31,17.58.08,5.67.76,11.32.27,16.99-.25,2.85-.87,5.65-1.95,8.3-1.09,2.7-2.29,5.37-3.21,8.14-.89,2.65-1.07,5.49-1.97,8.13-.3.89,1.1,1.27,1.4.39.94-2.74,1.67-5.54,2.59-8.28.95-2.81,2.22-5.51,3.23-8.3,1.97-5.4,1.91-11.1,1.55-16.75-.18-2.82-.44-5.64-.53-8.46-.1-2.98.04-5.95.27-8.92.47-6.01,1.25-12,1.98-17.98.69-5.68,2.05-11.32,1.84-17.07-.18-5.06-1.81-9.81-4.57-14.04-1.17-1.8-2.49-3.57-4.05-5.05-1.43-1.36-3.26-2.65-5.31-2.7-1.22-.03-2.43.32-3.6.62-1.3.33-2.63.57-3.97.79-2.86.47-5.72.57-8.62.4-4.89-.27-9.71-1.33-14.24-3.2-2.33-.96-4.55-2.16-6.68-3.5-1.1-.69-2.14-1.46-3.19-2.23-.81-.59-1.73-1.12-2.72-1.34-4.68-1.01-6.51,5.78-7.36,9.08-1.49,5.73-3.12,11.43-4.6,17.17-.73,2.83-1.44,5.67-2.29,8.47-.81,2.69-1.77,5.33-2.56,8.02-1.51,5.14-2.8,10.36-4.76,15.36-3.93,10.03-11.38,18.48-19.54,25.34-4.03,3.39-8.27,6.31-13.26,8.11-4.83,1.74-9.92,2.58-15,3.2-5.36.65-10.74,1.15-16.14,1.03-5.48-.13-11.1-.64-16.39-2.14-2.63-.74-5.21-1.66-7.69-2.8-.36-.16-.67.34-.31.53"/>
      <path class="cls-1" d="m457.84,467.7c5.07,1.78,8.43-3.67,10.13-7.6,2.63-6.1,4.22-12.57,5.35-19.09.38-2.21.74-4.42,1.16-6.62.42-2.21.93-4.41,1.36-6.61.87-4.47,1.56-8.97,2.19-13.48.6-4.33,1.09-8.68,1.7-13.01.59-4.15,1.31-8.31,2.76-12.27,1.33-3.6,3.23-7.31,6.14-9.89,1.44-1.28,3.31-1.79,5.17-2.09,2.13-.34,4.28-.48,6.44-.43,4.47.1,8.87.93,13.23,1.85,3.27.69,6.58,1.27,9.73,2.4,3.09,1.1,6.02,2.83,7.93,5.57,2.11,3.04,3.46,6.7,4.1,10.33.33,1.86.45,3.76.36,5.65-.09,1.93-.49,3.79-.99,5.65-1.19,4.38-2.66,8.75-3.35,13.25-.33,2.18-.4,4.38-.4,6.59,0,2.28-.07,4.56-.02,6.84.1,4.49.49,8.97.03,13.45-.41,3.98-1.51,7.93-3.25,11.53-.92,1.9-1.98,3.74-2.99,5.58-1.04,1.89-2.13,3.75-3.2,5.62-.52.9-1.05,1.79-1.6,2.67-.54.85-1.06,1.75-1.67,2.56-.27.37-.06.95.31,1.16.44.25.89.06,1.16-.31.66-.87,1.36-1.69,2-2.58.62-.88,1.22-1.76,1.81-2.66,1.2-1.83,2.24-3.76,3.29-5.67,2.03-3.69,3.99-7.37,5.09-11.45,1.12-4.14,1.43-8.51,1.12-12.78-.18-2.31-.4-4.62-.57-6.93-.16-2.31-.22-4.63-.24-6.94-.02-2.28.02-4.58.4-6.83.38-2.24.99-4.45,1.6-6.64.62-2.2,1.29-4.38,1.98-6.56.59-1.87.95-3.75,1.04-5.7.18-3.83-.63-7.76-2.1-11.29-1.39-3.34-3.3-6.42-6.26-8.56-2.69-1.94-5.93-2.98-9.12-3.74-1.65-.4-3.32-.72-4.99-1.05-2.12-.43-4.24-.88-6.37-1.24-4.4-.75-8.81-1.06-13.26-.68-1.92.17-3.87.41-5.63,1.25-1.76.84-3.11,2.35-4.27,3.89-5.06,6.72-6.2,15.5-7.07,23.62-.96,9.06-2.18,18.09-4.1,27-.96,4.45-1.56,8.96-2.44,13.41-.69,3.49-1.69,6.86-2.77,10.24-.78,2.4-1.64,4.8-2.8,7.05-1.04,2.01-2.48,4.24-4.7,5.08-1.07.4-2.23.44-3.34.18-.19-.04-.26.22-.08.29"/>
      <path class="cls-1" d="m493.26,465.47c-3.97-5.3-7.09-11.24-8-17.88-.51-3.7-.39-7.46-.39-11.18,0-3.88,0-7.76.15-11.63.33-7.73.96-15.46,1.96-23.13.37-2.84.69-5.71,1.44-8.48.61-2.25,1.51-4.5,3.2-6.17,2.07-2.06,5.03-2.95,7.87-3.26,3.7-.41,7.42,0,11.02.88,3.02.75,6.01,1.75,8.82,3.07,2.25,1.05,4.4,2.37,6.11,4.19,1.82,1.94,3.03,4.41,3.65,6.99.9,3.75-.02,7.54-.57,11.27-1.07,7.27-1.48,14.62-2.44,21.91-.46,3.51-1.13,7.01-2.41,10.33-1.14,2.97-2.65,5.79-4.45,8.41-3.56,5.19-8.24,9.67-13.1,13.63-.63.52-1.26,1.05-1.87,1.61-.62.57-1.09,1.24-1.65,1.86-.49.54.31,1.35.8.8.56-.63,1.32-1.12,1.97-1.65.69-.56,1.38-1.1,2.06-1.65,1.31-1.07,2.57-2.2,3.81-3.34,2.38-2.19,4.66-4.49,6.72-7,2.04-2.48,3.86-5.15,5.33-8.01,1.62-3.15,2.76-6.47,3.43-9.95.7-3.6.99-7.26,1.34-10.91.36-3.79.77-7.59,1.18-11.38.21-1.96.48-3.89.89-5.82.4-1.92.79-3.85.88-5.82.14-3.33-.64-6.67-2.41-9.51-2.9-4.66-7.98-6.98-13.01-8.65-3.55-1.18-7.16-2.1-10.89-2.44-1.89-.17-3.8-.17-5.69.04-1.69.19-3.4.42-5,1.02-2.47.93-4.37,2.78-5.58,5.1-1.19,2.29-1.72,4.83-2.07,7.36-.48,3.51-.77,7.05-1.11,10.57-.38,3.98-.74,7.97-1.01,11.97-.27,3.99-.49,7.99-.6,11.99-.05,1.96-.06,3.92-.08,5.88-.02,1.95-.06,3.9,0,5.85.12,3.7.58,7.37,1.78,10.89,1.07,3.09,2.69,5.99,4.58,8.65.94,1.32,1.94,2.59,2.98,3.83.15.18.46-.06.32-.25"/>
      <path class="cls-1" d="m500.91,462.28c-1.21-2.55-1.95-5.27-2.82-7.95-.87-2.66-1.96-5.24-2.9-7.88-1.96-5.46-3.26-11.13-3.91-16.9-.67-5.94-.58-11.93.45-17.82.45-2.63,1.03-5.26,1.74-7.84.67-2.41,1.54-4.76,2.87-6.88.63-1,1.37-1.91,2.11-2.82.66-.81,1.37-1.62,2.29-2.15,1.07-.62,2.31-.66,3.52-.67,1.43-.02,2.87.06,4.3.25,3.98.52,8.24,1.78,10.91,4.97,1.53,1.83,2.21,4.16,2.64,6.46.54,2.85.54,5.79.33,8.67-.43,5.85-1.58,11.65-2.98,17.33-.7,2.83-1.46,5.64-2.19,8.47-.69,2.67-1.34,5.36-2.42,7.9-2.05,4.78-5.12,9.03-7.83,13.45-.33.53-.59,1.09-.87,1.65-.28.58-.43,1.24-.73,1.8-.22.39.38.74.6.35.31-.58.83-1.08,1.21-1.62.39-.56.78-1.11,1.14-1.68.71-1.16,1.45-2.31,2.18-3.46,1.44-2.25,2.87-4.51,4.12-6.88,1.24-2.36,2.27-4.82,2.96-7.4.79-2.98,1.68-5.93,2.48-8.91.78-2.9,1.54-5.82,2.13-8.77.58-2.98,1.01-5.98,1.35-9,.34-3.02.58-6.05.35-9.09-.21-2.73-.71-5.61-1.96-8.07-2-3.93-6.01-6.04-10.17-6.95-2.59-.57-5.26-.8-7.9-.7-1.28.05-2.51.13-3.67.73-.94.49-1.72,1.25-2.41,2.05-1.69,1.95-3.16,4.01-4.15,6.4-.99,2.39-1.6,4.93-2.12,7.46-1.22,5.89-1.89,11.82-1.66,17.85.22,6.01,1.18,12.04,2.88,17.81.82,2.78,1.8,5.52,2.96,8.18,1.16,2.65,2.09,5.39,3.23,8.04.54,1.26,1.13,2.49,1.82,3.68.05.1.2.01.15-.09"/>
      <path class="cls-1" d="m502.97,459.94c-1.22-4.45-2.17-8.99-3.03-13.53-.43-2.26-.88-4.5-1.3-6.76-.41-2.23-.88-4.45-1.16-6.7-.57-4.51-.54-9.11.28-13.59.39-2.14.98-4.23,1.69-6.29.54-1.56,1.09-3.13,1.82-4.63.72-1.47,1.6-2.98,2.92-4.01,1.38-1.09,3.11-1.29,4.77-.8,3.61,1.06,5.89,4.89,6.79,8.33.94,3.61.47,7.43-.33,11.01-.84,3.78-2.08,7.45-3.06,11.2-.56,2.12-1.03,4.26-1.65,6.37-.66,2.26-1.35,4.5-1.95,6.78-.58,2.21-1.01,4.45-1.54,6.67-.53,2.2-1.2,4.36-1.78,6.55-.27,1.02-.47,2.06-.74,3.09-.13.52.61.85.88.37,1.14-2.05,2.05-4.14,2.68-6.4.63-2.24,1.08-4.5,1.58-6.77.54-2.42,1.19-4.81,1.8-7.22.6-2.37,1.09-4.76,1.56-7.15,1.5-7.62,5.25-15.22,4.08-23.15-.28-1.9-.89-3.75-1.82-5.44-.96-1.75-2.23-3.42-3.92-4.52-1.59-1.03-3.52-1.58-5.4-1.27-1.76.29-3.21,1.43-4.29,2.81-1.11,1.42-1.88,3.06-2.55,4.72-.67,1.69-1.27,3.42-1.78,5.16-1.34,4.53-1.84,9.3-1.63,14.01.22,4.74,1.29,9.38,2.24,14.01.96,4.68,2.05,9.32,3.46,13.89.34,1.12.71,2.23,1.08,3.34.06.18.34.11.29-.08"/>
      <path class="cls-1" d="m503.3,469c.28-5.04.84-10.05.9-15.1.03-2.43-.24-4.89-.56-7.29-.33-2.48-.77-4.92-1.3-7.36-.53-2.43-1.07-4.86-1.45-7.31-.29-1.91-.64-3.9-.54-5.84.12-2.28.83-4.59,1.67-6.71.47-1.18,1.02-2.34,1.69-3.41.56-.89,1.21-1.81,2.07-2.44.66-.49,1.48-.82,2.31-.63,1.07.26,1.89,1.17,2.5,2.04,2.28,3.29,1.25,7.46.38,11.05-1.09,4.47-2.32,8.94-3.07,13.49-.38,2.31-.87,4.61-1.41,6.89-.55,2.32-1.12,4.65-1.74,6.95-.64,2.38-1.38,4.73-1.96,7.13-.46,1.9-.97,3.89-1.07,5.84-.04.86.12,1.84.31,2.68.16.74,1.29.56,1.3-.18,0-.96.31-1.84.48-2.78.18-.99.4-1.97.65-2.94.57-2.25,1.19-4.48,1.79-6.72.64-2.39,1.26-4.8,1.64-7.25.37-2.41.66-4.84.89-7.26.23-2.49.57-4.92,1.11-7.36.52-2.32,1.13-4.63,1.73-6.94.96-3.68,2.29-7.93.73-11.64-.86-2.05-3.04-4.54-5.53-3.84-2.1.58-3.52,2.84-4.46,4.64-1.2,2.29-2.07,4.82-2.54,7.36-.19,1.03-.3,2.06-.24,3.11.15,2.5.42,4.99.71,7.49.29,2.5.58,5.02,1,7.5.42,2.5.84,5.02,1.08,7.55.49,5.14.53,10.33.62,15.49.02,1.26.05,2.51.1,3.77,0,.14.21.14.22,0"/>
      <path class="cls-1" d="m431.12,461.55c1.02-.85,2.36-1.24,3.64-1.54,1.38-.33,2.78-.53,4.17-.81,2.89-.57,5.66-1.82,8.02-3.58,1.32-.98,2.5-2.11,3.68-3.25,1.3-1.25,2.61-2.5,3.87-3.79,1.26-1.29,2.48-2.62,3.59-4.04.72-.93,1.44-1.86,2-2.9.95-1.78,1.76-3.64,2.92-5.3.45-.64.99-1.36,1.72-1.69.22-.1.49-.14.7-.09.33.08.6.32.83.58,1.97,2.19,1.37,5.61.7,8.19-.37,1.42-.84,2.82-1.25,4.23-.45,1.53-.8,3.09-1.32,4.6-1.07,3.13-2.48,6.14-4.1,9.03-1.65,2.92-3.63,5.59-5.53,8.34-.48.7-.96,1.41-1.47,2.1-.35.48.42,1.05.82.63,2.45-2.56,4.54-5.33,6.36-8.38,1.76-2.94,3.22-6.03,4.37-9.25,1.1-3.07,1.88-6.24,2.8-9.37.84-2.82,1.72-6.14.58-9-.4-1.02-1.07-2.17-2.1-2.64-.77-.36-1.61-.21-2.31.25-1.68,1.12-2.69,3.2-3.61,4.93-.45.86-.88,1.74-1.36,2.58-.7,1.23-1.65,2.33-2.57,3.41-2.41,2.82-5.04,5.47-7.7,8.04-2.36,2.28-5.09,4.18-8.2,5.25-2.63.9-5.5,1.03-8.03,2.25-.54.26-1.04.57-1.48.97-.18.16.08.4.26.26"/>
      <path class="cls-1" d="m444.81,465.02c2.99-1.48,5.5-3.64,7.74-6.09,1.25-1.37,2.52-2.72,3.8-4.06.54-.57,1.02-1.16,1.47-1.81.45-.63.88-1.28,1.46-1.79.26-.23.61-.46.87-.48,0,0,.04.02.05.03.05.05.11.12.18.28.27.55.25,1.5.21,2.2-.15,2.33-1.34,4.29-2.65,6.17-1.02,1.46-2.14,2.84-3.2,4.26-.52.7-1.01,1.43-1.43,2.19-.41.75-.84,1.59-1.05,2.42-.13.47.49.68.75.31.49-.68.93-1.4,1.42-2.09.49-.69.99-1.38,1.49-2.06.98-1.34,2.03-2.64,2.99-4.01.95-1.35,1.81-2.75,2.43-4.28.34-.84.47-1.75.53-2.64.09-1.28.03-4.36-2.03-3.91-1.2.26-2.04,1.5-2.68,2.44-.49.72-.97,1.39-1.55,2.03-.67.73-1.34,1.46-2.01,2.19-1.38,1.53-2.67,3.13-4.16,4.56-1.48,1.43-3.07,2.74-4.84,3.79-.22.13-.03.45.2.34"/>
      <path class="cls-1" d="m378.42,315.54c.71-.78,1.74-1.2,2.74-1.49,1.21-.36,2.45-.63,3.7-.81,2.45-.35,5.02-.53,7.49-.33,6.72.54,12.2,4.78,16.46,9.73,2.18,2.54,3.99,5.31,5.77,8.14,1.73,2.73,3.65,5.31,5.86,7.68,2.26,2.43,4.78,4.51,7.35,6.6,2.72,2.21,5.47,4.66,8.69,6.1,2.85,1.28,5.93,2.08,8.29,4.23,1.87,1.7,3.14,4.01,3.43,6.55.33,3.03-.71,6.02-1.66,8.87-1.05,3.16-2.39,6.21-4.01,9.12-.83,1.49-1.73,2.94-2.53,4.45-.78,1.49-1.54,2.99-2.5,4.38-.98,1.42-2.18,2.7-3.42,3.91-1.23,1.2-2.56,2.32-4.01,3.24-1.46.93-3.03,1.68-4.66,2.27-1.63.59-3.35,1.15-5.08,1.37-1.85.24-3.73.12-5.59.18-1.73.05-3.46.31-5.2.26-1.83-.05-3.47-.63-5.19-1.21-1.75-.59-3.49-1.22-5.25-1.8-1.73-.58-3.48-1.12-5.24-1.59-1.45-.39-2.92-.7-4.37-1.11-5.23-1.48-10.56-3.83-14.46-7.72-.89-.89-1.77-1.83-2.37-2.94-.25-.46-.96-.05-.71.41.64,1.17,1.34,2.28,2.23,3.28.93,1.03,2.03,1.95,3.16,2.75,2.38,1.71,5.08,2.98,7.8,4.03,2.77,1.07,5.63,1.72,8.48,2.5,3.67,1,7.26,2.28,10.83,3.58,1.76.64,3.44,1.2,5.34,1.23,1.81.03,3.61-.22,5.41-.25,1.9-.03,3.8.07,5.69-.21,1.78-.27,3.55-.81,5.23-1.46,3.42-1.31,6.41-3.28,9.01-5.85,1.25-1.23,2.45-2.56,3.46-4,1.01-1.42,1.78-2.99,2.59-4.53.81-1.57,1.75-3.07,2.61-4.61.84-1.5,1.6-3.03,2.29-4.6,1.38-3.13,2.6-6.46,3.32-9.81.59-2.76.4-5.62-.84-8.16-1.24-2.54-3.43-4.51-5.92-5.79-1.55-.79-3.2-1.34-4.8-2-1.69-.69-3.19-1.64-4.66-2.71-1.52-1.1-2.97-2.29-4.42-3.47-1.37-1.11-2.75-2.19-4.07-3.34-2.49-2.19-4.76-4.6-6.77-7.23-2.06-2.71-3.73-5.67-5.75-8.41-3.93-5.31-9.04-10.43-15.54-12.36-2.91-.86-5.85-.92-8.85-.66-2.45.22-5.08.49-7.34,1.54-.91.43-1.77.99-2.35,1.83-.12.18.15.39.3.23"/>
      <path class="cls-1" d="m378.86,327.2c.6-2.22,1.79-4.26,3.76-5.5,1.78-1.13,3.94-1.61,6.04-1.62,2.27-.01,4.57.46,6.66,1.34,1.11.46,2.18,1.04,3.1,1.82,1.07.9,2,1.97,2.84,3.09,1.71,2.3,3.14,4.84,5.1,6.95,1.21,1.3,2.58,2.48,3.86,3.7,1.41,1.35,2.81,2.71,4.22,4.06,1.4,1.36,2.82,2.7,4.26,4.02.91.83,1.82,1.64,2.83,2.35,1.85,1.3,3.87,2.36,5.87,3.41,4.04,2.1,8.47,4.09,11.62,7.48,1.44,1.56,2.47,3.42,2.86,5.51.5,2.69.16,5.6-.52,8.23-1.48,5.72-4.92,10.97-9.47,14.73-1.08.89-2.24,1.69-3.47,2.39-1.36.77-2.81,1.37-4.24,1.99-3.16,1.37-6.43,2.69-9.88,3.08-1.76.2-3.59.19-5.33-.15-1.7-.34-3.27-1.11-4.82-1.85-3.37-1.61-6.94-2.76-10.34-4.31-3.46-1.58-6.76-3.5-10.06-5.39-3.32-1.91-6.7-3.67-10.07-5.49-1.62-.87-3.28-1.7-4.87-2.63-.99-.58-1.77.86-.88,1.51,1.61,1.17,3.26,2.19,5.04,3.09,1.75.9,3.52,1.75,5.27,2.66,3.49,1.82,6.89,3.81,10.39,5.62,3.52,1.81,7.18,3.15,10.87,4.52,1.76.65,3.45,1.4,5.16,2.16,1.66.74,3.32,1.33,5.13,1.55,3.61.44,7.21-.28,10.6-1.5,1.66-.6,3.29-1.3,4.9-2.02,1.44-.64,2.88-1.26,4.23-2.08,5.16-3.12,9.32-8.1,11.74-13.6,1.22-2.79,2.04-5.75,2.19-8.8.13-2.55-.18-5.11-1.38-7.39-2.23-4.21-6.68-6.77-10.76-8.88-2.16-1.11-4.35-2.15-6.47-3.33-.97-.54-1.93-1.11-2.84-1.75-1.16-.8-2.18-1.76-3.22-2.71-3-2.7-5.9-5.5-8.82-8.29-1.22-1.17-2.51-2.28-3.58-3.6-.94-1.16-1.73-2.41-2.53-3.66-1.57-2.46-3.21-4.99-5.7-6.61-2.01-1.31-4.43-2.12-6.79-2.45-4.5-.64-9.65.6-11.92,4.9-.57,1.07-.87,2.2-1.01,3.4-.03.25.37.29.43.06"/>
      <path class="cls-1" d="m376.2,334.04c1.02-2.05,2.47-3.9,4.52-5,1.77-.95,3.83-1.27,5.82-1.16,2.18.12,4.33.74,6.33,1.58,2.3.97,4.36,2.2,6.06,4.05,1.73,1.87,3.04,4.06,4.49,6.14,1.6,2.31,3.4,4.42,5.56,6.24,2.24,1.89,4.71,3.5,7.21,5.04,1.98,1.22,3.95,2.44,5.99,3.56,3.52,1.93,7.27,3.76,10.16,6.62,1.3,1.3,2.4,2.82,2.94,4.59.64,2.06.54,4.27-.08,6.32-.83,2.8-2.54,5.3-4.46,7.47-1.8,2.04-3.84,3.93-6.05,5.53-1.14.83-2.35,1.59-3.64,2.15-1.28.55-2.57.73-3.95.72-1.51-.02-2.91-.33-4.37-.67-1.52-.36-3.01-.74-4.49-1.27-5.8-2.08-11.2-5.47-16.05-9.23-2.01-1.56-3.98-3.22-5.89-4.92-1.83-1.62-3.67-3.39-4.99-5.4-.3-.46-.55-.94-.8-1.42-.2-.38-.59-.81-.67-1.24-.08-.45-.63-.71-1.05-.59-.47.13-.67.59-.59,1.05,0,.04.01.08.02.11v-.45c-.24,1.25.33,2.5.97,3.55.7,1.14,1.56,2.17,2.49,3.14,1.75,1.83,3.72,3.43,5.66,5.06,4.94,4.13,10.2,7.91,16.05,10.66,1.48.7,3,1.34,4.55,1.86,1.51.5,3.12,1.01,4.71,1.16,2.96.29,6.07.22,8.84-.95,2.65-1.12,4.96-2.95,7.08-4.86,2.2-1.99,4.24-4.18,5.83-6.7,2.6-4.12,3.71-9.35,1.1-13.73-2.14-3.6-5.94-5.88-9.5-7.87-1.82-1.01-3.66-1.96-5.45-3.02-2.5-1.47-5-3-7.39-4.65-2.52-1.73-4.9-3.69-6.85-6.06-1.71-2.08-3.08-4.41-4.7-6.55-1.6-2.12-3.46-4.05-5.84-5.3-2.05-1.07-4.25-1.89-6.53-2.32-2.11-.4-4.32-.46-6.4.11-2.02.55-3.8,1.84-5.07,3.49-.73.95-1.28,2.01-1.71,3.12-.04.09.11.15.16.07"/>
      <path class="cls-1" d="m377.72,337.34c1.16-1.67,2.53-3.23,4.31-4.24,1.82-1.03,4.07-1.56,6.16-1.36,2.18.21,4.17,1.31,5.88,2.62,1.9,1.44,3.62,3.13,5.15,4.95,1.6,1.9,3.04,3.92,4.63,5.81,1.63,1.94,3.51,3.58,5.37,5.28,1.89,1.73,3.78,3.46,5.81,5.01,1.83,1.4,3.79,2.47,5.96,3.26,1.98.73,4.05,1.29,5.93,2.29,2,1.06,3.54,2.68,4.52,4.72,1.02,2.14,1.14,4.5.36,6.73-.75,2.11-2.03,4.01-3.57,5.63-1.56,1.63-3.45,3.21-5.51,4.15-2.28,1.05-4.82.98-7.22.45-4.72-1.04-8.86-3.37-12.42-6.61-3.7-3.36-6.56-7.45-9.58-11.4-1.55-2.03-3.3-3.87-5.06-5.71-1.63-1.69-3.13-3.47-4.62-5.28-.31-.38-.58-.79-.83-1.21-.26-.44-.58-.94-.72-1.44-.19-.72-1.3-.41-1.11.31.14.53.21,1.07.38,1.59.2.6.46,1.18.72,1.77.52,1.18,1.29,2.18,2.1,3.18,1.52,1.88,3.35,3.49,4.99,5.27,1.9,2.06,3.61,4.3,5.38,6.46,1.65,2.01,3.38,3.95,5.26,5.73,3.56,3.37,7.64,6.35,12.37,7.81,2.42.75,5.04,1.34,7.58,1.07,2.63-.28,4.8-1.56,6.84-3.16,1.84-1.45,3.49-3.18,4.74-5.17,1.26-2.01,2.19-4.35,2.09-6.75-.1-2.44-1.13-4.72-2.67-6.59-1.49-1.8-3.51-2.89-5.66-3.73-2.06-.8-4.23-1.36-6.21-2.37-2.29-1.17-4.35-2.85-6.3-4.5-1.04-.89-2.05-1.82-3.07-2.74-.94-.86-1.92-1.68-2.84-2.57-1.88-1.83-3.46-3.94-5.08-6-1.59-2.03-3.27-3.94-5.22-5.63-1.71-1.49-3.57-2.93-5.75-3.67-4.17-1.43-8.85.15-11.67,3.43-.66.76-1.23,1.59-1.76,2.45-.12.2.18.37.31.18"/>
      <path class="cls-1" d="m379.74,337.36c.92-1.36,2.25-2.23,3.88-2.41,1.56-.17,3.1.2,4.54.78,1.56.62,3.03,1.53,4.37,2.54,1.12.85,2.21,1.84,3.03,2.99,2.77,3.92,5.57,7.8,8.85,11.32,1.62,1.74,3.34,3.42,5.15,4.97,1.29,1.11,2.68,2.08,4.06,3.07,2.59,1.84,5.41,3.49,7.47,5.96.4.48.8,1.09,1.11,1.72.13.27.21.46.32.82.05.16.09.33.13.49.04.22.07.37.08.45.16,1.61-.32,3.12-1.21,4.52-1,1.58-2.49,2.85-4.36,3.22-2.1.42-3.91-.64-5.44-1.96-1.88-1.61-3.81-3.17-5.69-4.78-1.89-1.62-3.56-3.42-5.08-5.39-2.98-3.87-5.26-8.24-8.44-11.97-1.57-1.84-3.31-3.53-5.22-5.02-.88-.68-1.78-1.3-2.7-1.93-.42-.28-.82-.6-1.25-.87-.45-.28-.89-.53-1.29-.89-.71-.64-1.47-1.25-2.03-2.05-.33-.48-1.16-.2-.98.41.31,1.04.84,2.05,1.6,2.83.81.83,1.64,1.61,2.59,2.29,1.89,1.36,3.74,2.71,5.42,4.35,3.63,3.56,6.43,7.89,9.58,11.86,1.57,1.99,3.19,3.95,5.01,5.73,1.94,1.89,4.14,3.48,6.16,5.3,1.66,1.49,3.31,3.22,5.61,3.64,2.19.4,4.37-.21,6.11-1.57,1.61-1.26,2.81-3.09,3.35-5.06.47-1.68.32-3.4-.37-4.99-1.36-3.1-4.41-5.17-7.17-6.92-1.41-.89-2.9-1.64-4.29-2.54-1.83-1.18-3.57-2.56-5.14-4.05-3.71-3.5-6.88-7.5-9.82-11.66-1.01-1.42-1.94-2.81-3.24-3.98-1.3-1.18-2.76-2.19-4.32-2.98-2.78-1.39-6.51-2.41-9.19-.28-.63.5-1.13,1.14-1.53,1.83-.14.25.22.46.38.22"/>
      <path class="cls-1" d="m381.36,339.38c3.22.06,5.93,1.57,8.29,3.66,1.14,1.01,2.19,2.1,3.25,3.2,1.24,1.29,2.52,2.54,3.79,3.79,2.76,2.72,5.56,5.41,8.48,7.96,1.47,1.29,2.99,2.53,4.54,3.73,1.3,1.01,2.61,2.02,3.78,3.2,1.14,1.15,2.17,2.48,2.71,4.02.16.44.32.98.19,1.41-.07.23-.25.38-.49.46-.78.26-1.76.01-2.55-.27-1.19-.43-2.18-1.26-3.14-2.06-5.4-4.49-9.27-10.45-14.08-15.5-2.7-2.84-5.52-5.62-8.48-8.18-1.07-.93-2.29-1.63-3.51-2.35-1.17-.68-2.4-1.48-3.34-2.24-.53-.43-1.04-.72-1.48-1.25-.47-.55-1.19.06-1.09.64.12.71.36,1.41.76,2.01.45.68,1.18,1.2,1.84,1.65,1.23.84,2.59,1.48,3.92,2.16,1.56.8,2.91,1.9,4.26,2.99,1.61,1.31,3.17,2.71,4.67,4.15,5.32,5.13,9.36,11.47,14.98,16.31,1.87,1.61,4.13,3.48,6.78,3.32.96-.06,1.91-.49,2.22-1.47.41-1.33-.39-2.86-1.06-3.95-1.88-3.06-5.02-5-7.79-7.16-3.26-2.54-6.36-5.28-9.35-8.13-2.65-2.51-5.2-5.13-7.82-7.66-2.18-2.12-4.76-4.18-7.86-4.64-.8-.12-1.6-.14-2.4-.09-.19.01-.19.3,0,.3"/>
      <path class="cls-1" d="m585.4,468.82c.19-5.04-.22-10.09-.25-15.14,0-2.38-.04-4.78-.54-7.12-.53-2.43-1.46-4.79-2.4-7.08-.95-2.3-1.97-4.56-2.99-6.82-.99-2.22-1.9-4.53-3.08-6.66-1.1-1.97-2.34-3.87-3.24-5.95-1.02-2.34-1.51-4.88-2.15-7.34-.63-2.4-1.52-4.72-2.06-7.14-.21-.94-.38-1.9-.46-2.85-.05-.59-.13-1.69.66-1.85.69-.13,1.52.63,1.99,1.04.6.52,1.17,1.08,1.72,1.65,1.25,1.31,2.44,2.69,3.64,4.05,2.37,2.68,4.86,5.36,7.99,7.17,1.57.9,3.29,1.54,5.08,1.83,2.27.37,4.5.06,6.7-.57,2.12-.6,4.23-1.29,6.3-2.02,1.98-.7,3.93-1.53,5.71-2.65,3.72-2.33,6.06-5.88,7.72-9.87.81-1.94,1.38-3.92,1.75-5.99.34-1.89.59-3.93,1.57-5.62.56-.96,1.45-1.85,2.58-2.07.9-.18,1.84.11,2.64.53,2.33,1.2,4.14,3.34,5.73,5.37,1.57,2.01,2.96,4.14,4.36,6.28,3.85,5.91,9.05,10.65,15.42,13.74,3.47,1.68,7.15,2.9,10.9,3.78,2.18.51,4.38.87,6.57,1.3,2.52.5,5.03,1.05,7.54,1.57,4.83,1,9.76,1.61,14.55,2.79,2.24.55,4.49,1.25,6.59,2.22,2.26,1.05,4.42,2.35,6.59,3.57,2.13,1.2,4.34,2.21,6.43,3.47.82.5,1.44-.7.73-1.25-1.03-.79-2.05-1.56-3.05-2.38-.98-.8-2.04-1.44-3.11-2.1-2.12-1.29-4.29-2.56-6.57-3.56-4.47-1.96-9.32-2.63-14.12-3.24-5.18-.66-10.29-1.79-15.42-2.72-4.18-.76-8.32-1.51-12.35-2.9-7.46-2.57-14.07-7.12-18.65-13.6-2.89-4.1-5.33-8.58-9.16-11.92-1.66-1.46-3.88-2.89-6.2-2.31-3.27.82-4.3,4.6-4.83,7.48-.38,2.02-.77,3.98-1.49,5.92-.8,2.13-1.83,4.2-3.14,6.06-2.51,3.57-6.52,5.48-10.54,6.89-2.16.76-4.34,1.52-6.55,2.13-2.19.6-4.36.72-6.58.18-3.69-.9-6.65-3.31-9.19-6.03-2.42-2.6-4.57-5.46-7.12-7.93-1-.97-2.62-2.21-3.92-.99-1.16,1.08-.66,3.06-.45,4.42.4,2.54,1.31,4.95,2.01,7.41.7,2.45,1.09,4.99,1.89,7.42.73,2.19,1.89,4.19,2.97,6.22,1.14,2.13,1.92,4.43,2.86,6.64,1.97,4.67,4.34,9.24,5.67,14.15.64,2.35.75,4.81.85,7.23.1,2.53.35,5.02.65,7.53.31,2.53.61,5.06.72,7.61.01.35.52.35.54,0"/>
      <path class="cls-1" d="m593.82,465.03c-.53-7.81-2.59-15.37-5.14-22.73-1.27-3.66-2.62-7.31-4.1-10.88-1.38-3.31-3.36-6.45-5.46-9.34-.92-1.26-2.06-2.71-2.22-4.31-.04-.4-.05-.93.32-1.16.31-.19.78-.13,1.13-.07,1.06.17,2.04.63,2.99,1.11,1.63.82,3.2,1.76,4.89,2.46,3.4,1.41,7.18,1.49,10.78.96,3.65-.54,7.38-1.62,10.53-3.6,1.47-.93,2.82-2.03,4.16-3.12,1.33-1.09,2.72-2.1,4.01-3.22,2.14-1.87,4.41-4.12,5.17-6.94.27-.98.42-1.98.66-2.96.18-.73.43-1.61.94-2.12.59-.58,1.53-.44,2.33-.21,1.46.43,2.63,1.45,3.58,2.61,2.03,2.49,3.37,5.47,5.45,7.94,2.21,2.64,5.13,4.66,8.03,6.46,6.15,3.81,12.92,6.54,19.75,8.88,7.39,2.54,14.84,4.88,21.89,8.3,2.99,1.46,5.81,3.26,8.35,5.42,2.58,2.19,4.81,4.65,7.02,7.22.52.61,1.03,1.23,1.52,1.86.5.64,1.11,1.26,1.56,1.95.54.85,1.91.07,1.36-.79-.46-.73-.8-1.56-1.26-2.31-.44-.71-.9-1.41-1.37-2.1-.99-1.43-2.11-2.76-3.3-4.03-2.36-2.54-5.01-4.79-7.92-6.68-3.16-2.05-6.64-3.58-10.15-4.95-3.81-1.48-7.7-2.74-11.63-3.86-7.14-2.05-14.21-4.2-20.86-7.57-3.28-1.66-6.5-3.56-9.37-5.85-2.7-2.15-4.48-4.98-6.28-7.87-1.56-2.51-3.49-5.31-6.51-6.1-.96-.25-2.04-.27-2.9.3-.8.52-1.24,1.38-1.53,2.26-.62,1.87-.6,3.95-1.68,5.65-1.95,3.06-4.95,5.14-7.71,7.41-1.38,1.13-2.75,2.27-4.27,3.2-1.59.98-3.33,1.72-5.09,2.35-3.7,1.31-7.5,2.22-11.45,1.74-3.59-.44-6.42-2.65-9.61-4.11-1.47-.67-4.32-1.46-4.5,1-.11,1.47.74,2.9,1.53,4.07.98,1.44,2.07,2.79,3,4.27,1.02,1.63,2,3.29,2.8,5.04.84,1.81,1.48,3.7,2.2,5.56,2.9,7.49,5.57,15.15,7.1,23.05.37,1.93.67,3.87.86,5.83.03.26.43.27.41,0"/>
      <path class="cls-1" d="m601.94,467.04c.4-.49.1-1.36-.05-1.89-.29-.98-.74-1.92-1.14-2.85-1.16-2.67-1.84-5.49-2.72-8.25-1.05-3.27-2.4-6.48-3.71-9.65-1.18-2.83-2.5-5.58-3.78-8.37-1.06-2.31-2.07-5.16-.58-7.51,1.37-2.15,4.03-3.09,6.4-3.59,2.44-.52,4.93-.64,7.39-1,2.74-.4,5.39-1.17,7.89-2.38,2.53-1.23,4.87-2.83,7.1-4.53,1.92-1.47,4-3.26,6.57-3.21,1.54.04,3.01.73,4.38,1.36,1.47.67,2.9,1.43,4.31,2.24,2.76,1.58,5.44,3.3,8.2,4.89,5.86,3.37,11.98,6.35,18.18,9.04,6.11,2.64,12.13,5.49,17.87,8.89,2.73,1.62,5.41,3.36,8.01,5.19,2.54,1.78,4.99,3.75,7.04,6.09,1.93,2.2,3.55,4.69,4.8,7.35,1.22,2.6,1.98,5.34,2.68,8.12.36,1.42.65,2.85.91,4.29.09.5.91.39.88-.12-.18-2.97-.65-5.88-1.56-8.71-.89-2.78-2.12-5.45-3.7-7.91-1.68-2.61-3.74-4.93-6.11-6.94-2.42-2.04-5.06-3.78-7.73-5.48-5.71-3.63-11.67-6.81-17.85-9.58-3.13-1.4-6.31-2.68-9.43-4.1-3.15-1.43-6.26-2.96-9.32-4.58-2.95-1.56-5.82-3.22-8.64-5.01-2.73-1.74-5.48-3.48-8.42-4.85-1.38-.64-2.78-1.26-4.32-1.33-1.21-.05-2.39.26-3.48.78-1.19.57-2.24,1.38-3.28,2.18-1.14.87-2.29,1.72-3.48,2.52-2.31,1.55-4.75,2.9-7.41,3.74-2.59.81-5.26,1.06-7.95,1.36-4.59.5-11.58,1.78-11.75,7.67-.08,2.69,1.31,5.24,2.47,7.58,1.51,3.05,2.81,6.21,4.08,9.37.67,1.67,1.34,3.34,1.96,5.03.57,1.56,1.03,3.17,1.51,4.76.44,1.45.9,2.9,1.52,4.29.39.88.82,1.74,1.2,2.63.18.43.37.87.52,1.32.06.18.24.58.13.77-.18.27.25.61.46.35"/>
      <path class="cls-1" d="m611.6,467.35c-.36-2.41-2.29-4.33-3.52-6.34-1.49-2.42-2.69-4.99-3.88-7.55-1.27-2.75-2.58-5.48-3.84-8.24-1.04-2.27-2.18-4.56-2.88-6.97-.62-2.14-.83-4.5.59-6.38,1.18-1.55,3.02-2.57,4.77-3.37,2.04-.94,4.2-1.56,6.3-2.35,2.67-1,5.3-2.14,8-3.09,2.68-.94,5.5-1.84,8.36-1.93,2.69-.08,5.23.91,7.6,2.1,2.37,1.2,4.6,2.65,6.93,3.92,2.51,1.39,5.06,2.69,7.54,4.14,2.51,1.46,5,2.95,7.53,4.39,2.43,1.38,4.83,2.79,7.16,4.34,4.58,3.04,8.89,6.45,12.96,10.15,3.77,3.43,7.46,7.03,10.84,10.84,3.32,3.74,6.28,7.83,8.41,12.38.26.54.48,1.1.72,1.65.25.56.57,1.1.85,1.65.3.59,1.15.16,1.03-.43-.13-.65-.25-1.32-.5-1.94-.25-.63-.52-1.25-.8-1.87-.53-1.15-1.12-2.27-1.76-3.37-1.31-2.24-2.85-4.35-4.49-6.36-3.26-4-6.98-7.58-10.72-11.11-4.06-3.83-8.38-7.32-12.98-10.47-4.74-3.25-9.79-5.98-14.74-8.88-2.62-1.53-5.23-3.07-7.89-4.52-2.38-1.3-4.71-2.67-7.04-4.05-2.32-1.37-4.74-2.7-7.38-3.33-2.77-.66-5.62-.16-8.32.6-2.85.8-5.6,1.87-8.34,2.96-1.36.54-2.72,1.1-4.1,1.58-1.11.39-2.24.72-3.35,1.1-3.7,1.28-8.29,3.35-8.8,7.76-.28,2.46.65,4.9,1.62,7.1,1.14,2.59,2.39,5.14,3.63,7.69,1.34,2.73,2.63,5.5,4.06,8.19.67,1.26,1.42,2.49,2.22,3.68.71,1.07,1.52,2.05,2.29,3.08.76,1,1.48,2.07,1.73,3.32.03.16.27.09.24-.07"/>
      <path class="cls-1" d="m619.9,465.46c-2.83-3.07-5.11-6.57-7.53-9.95-2.44-3.41-5.17-6.66-6.94-10.5-.78-1.68-1.27-3.62-.88-5.47.4-1.88,1.65-3.29,3.05-4.52,1.39-1.22,2.94-2.25,4.49-3.25,1.57-1.01,3.13-2.03,4.67-3.08,1.56-1.07,3.16-2.09,4.99-2.58,2.06-.56,4.23-.35,6.27.18,2.06.54,4.06,1.3,6.03,2.07,2,.78,3.97,1.6,5.93,2.48,7.67,3.44,15.26,7.52,21.62,13.08,3.16,2.77,6.12,5.77,9.1,8.73,2.92,2.9,5.84,5.83,8.36,9.1.62.81,1.23,1.64,1.83,2.45.37.5,1.2.06.86-.5-2.17-3.62-5.21-6.74-8.16-9.73-3.05-3.08-6.12-6.17-9.31-9.11-3.21-2.95-6.59-5.63-10.3-7.92-3.76-2.32-7.65-4.41-11.65-6.3-3.94-1.86-7.99-3.61-12.12-4.97-2.09-.69-4.32-1.16-6.53-.98-2.05.16-3.88.92-5.62,1.95-1.65.98-3.2,2.14-4.82,3.16-1.62,1.03-3.25,2.02-4.79,3.16-1.51,1.12-3.02,2.39-3.99,4.02-.97,1.62-1.21,3.51-.89,5.35.35,2,1.33,3.83,2.36,5.54,1.15,1.89,2.45,3.69,3.79,5.44,1.32,1.72,2.67,3.41,3.98,5.13,1.27,1.67,2.53,3.36,3.88,4.96.67.78,1.35,1.55,2.07,2.28.15.15.38-.08.23-.23"/>
      <path class="cls-1" d="m625.71,464.22c-1.86-2.82-4.86-4.65-7.46-6.72-2.77-2.2-5.23-4.88-6.92-8-.81-1.51-1.38-3.05-1.27-4.78.09-1.55.7-3.03,1.52-4.33,1.75-2.78,4.46-4.95,7.27-6.59,3.32-1.94,7.07-3.01,10.92-2.55,1.99.23,3.9.92,5.76,1.65,1.9.75,3.75,1.61,5.56,2.55,3.6,1.87,7.03,4.07,10.38,6.35,3.09,2.1,5.95,4.54,8.61,7.16,2.63,2.59,5.04,5.39,7.34,8.27,2.33,2.92,4.47,5.97,6.71,8.96.55.73,1.14,1.44,1.71,2.15.26.32.76-.09.56-.43-2.01-3.31-4.25-6.47-6.57-9.56-2.29-3.07-4.7-6.05-7.34-8.83-2.64-2.79-5.49-5.35-8.6-7.6-3.36-2.43-6.94-4.63-10.57-6.62-1.84-1.01-3.71-1.96-5.63-2.79-1.89-.82-3.83-1.62-5.84-2.1-3.91-.94-7.87-.35-11.47,1.36-3.1,1.47-6.06,3.61-8.28,6.24-2.06,2.46-3.51,5.59-2.81,8.86.38,1.77,1.37,3.43,2.38,4.9,1.03,1.51,2.25,2.86,3.58,4.1,2.62,2.45,5.8,4.18,8.43,6.6.64.58,1.23,1.22,1.73,1.92.13.18.43.01.3-.18"/>
      <path class="cls-1" d="m630.09,462.6c-1.23-.23-2.32-.89-3.32-1.63-1.08-.79-2.08-1.67-3.06-2.58-1.84-1.7-3.96-3.3-5.39-5.38-.75-1.08-1.26-2.33-1.31-3.65-.04-1.25.29-2.5.85-3.61,1.17-2.34,3.13-4.27,5.42-5.52,2.36-1.29,5.16-1.68,7.83-1.65,2.81.04,5.6.49,8.26,1.41,5.3,1.83,9.77,5.33,13.58,9.38,1.1,1.16,2.15,2.36,3.12,3.64.96,1.27,2.01,2.49,3.01,3.73.98,1.22,1.96,2.45,2.95,3.67.99,1.23,2,2.5,3.17,3.57.58.53,1.16,1.02,1.81,1.47.42.29.89-.26.67-.67-.81-1.47-1.87-2.8-2.96-4.07-1.08-1.25-2.17-2.5-3.26-3.75-1.11-1.27-2.23-2.54-3.37-3.78-1.11-1.22-2.34-2.34-3.5-3.51-4.14-4.19-8.66-8.09-14.12-10.46-5.29-2.3-11.98-3.98-17.28-.78-4.3,2.61-8.86,8.21-6.52,13.47,1.11,2.5,3.42,4.14,5.43,5.87,1.97,1.69,3.93,3.59,6.38,4.57.52.21,1.05.36,1.6.42.09,0,.12-.15.02-.17"/>
      <path class="cls-1" d="m633.67,462.51c-1.8-2.05-3.81-3.89-5.57-5.97-1.02-1.21-2.02-2.47-2.81-3.84-.6-1.04-1.15-2.23-1.11-3.4.01-.47.14-.91.43-1.33.29-.43.81-.82,1.33-1.09,1.78-.93,3.93-1.37,5.92-1.56,4.17-.39,8.73.44,11.98,3.25,2.14,1.85,3.88,4.26,5.45,6.6.85,1.27,1.65,2.57,2.4,3.9.72,1.26,1.38,2.56,2.3,3.7.25.31.72-.03.63-.37-.35-1.37-1.03-2.61-1.73-3.83-.69-1.23-1.43-2.43-2.19-3.6-1.52-2.32-3.19-4.55-5.1-6.55-3.2-3.33-7.92-4.7-12.45-4.58-2.3.06-4.63.5-6.77,1.36-1.42.56-2.77,1.36-3.3,2.88-.44,1.27-.08,2.65.44,3.83.64,1.46,1.62,2.77,2.63,3.99,2.15,2.57,4.73,4.68,7.18,6.95.23.22.55-.11.35-.35"/>
      <path class="cls-1" d="m637.88,460.53c-1.53-.65-2.88-1.91-3.86-3.23-.79-1.06-1.77-2.68-1.22-4.05.27-.67.93-1.1,1.58-1.35,1.04-.4,2.27-.58,3.39-.44,1.1.14,2.11.65,2.84,1.48.83.94,1.24,2.2,1.73,3.33.6,1.38,1.42,2.67,2.52,3.71,1.06,1,2.22,1.85,3.38,2.74.36.27.9-.27.63-.64-.43-.59-.89-1.19-1.41-1.69-.49-.48-.98-.95-1.44-1.46-1-1.1-1.78-2.25-2.38-3.61-.59-1.33-1.14-2.71-2.22-3.73-.97-.92-2.2-1.43-3.52-1.58-2.03-.24-4.98.4-5.99,2.4-.81,1.61,0,3.45,1,4.77,1.21,1.6,2.94,3.06,4.86,3.69.22.07.3-.26.09-.35"/>
    </g>
  </g>
  <path class="cls-7" d="m400.91,674.7h-41.09c-3.53,0-6.4-2.87-6.4-6.4v-299.36c0-3.53,2.87-6.4,6.4-6.4l40.34.42c3.54,0,6.4,2.87,6.4,6.4l.74,298.94c0,3.53-2.87,6.4-6.4,6.4"/>
  <path class="cls-4" d="m672.82,369.74c-6.56,63.51-58.76,114.16-122.43,119.02-73.77,5.63-136.1-48.67-143.43-119.31-.41-3.96-3.83-6.92-7.81-6.92h-37.83c-4.54,0-8.25,3.83-7.88,8.36,8.23,101.05,96.7,179.41,201.62,171.14,90.04-7.1,163.13-79.33,171.18-169.28,9.13-102.12-63.84-189.12-160.37-202.53-4.55-.63-8.56,3.01-8.56,7.6v38.68c0,3.76,2.76,6.86,6.46,7.52,66.88,12.06,116.47,73.85,109.04,145.73"/>
  <path class="cls-6" d="m676.69,650.33l-39.82-102.88c-.04-.1-.12-.16-.17-.26l-4.52-11.56c-15.25,7.93-31.73,13.81-49.1,17.26l35.75,92.09s.02.02.02.03l9.46,24.45c1.68,4.26,6.5,6.34,10.75,4.66l32.96-13.03c4.25-1.68,6.34-6.5,4.66-10.75"/>
  <g>
    <path class="cls-1" d="m359.69,340.41c7.5-91.49,82.95-162.83,174.81-165.27-.05-.29-.09-.59-.09-.9,0-.26.04-.51.08-.76-92.73,2.44-168.9,74.46-176.45,166.82.16-.02.32-.05.49-.05.4,0,.79.06,1.16.15Z"/>
    <path class="cls-1" d="m534.22,225.34c-31.19,1.16-60.76,13.35-83.7,34.69-22.81,21.21-37.12,49.56-40.66,80.28.11,0,.22-.03.34-.03.46,0,.9.08,1.32.2,7.24-62.47,59.81-111.08,122.73-113.47-.06-.31-.1-.62-.1-.95,0-.24.04-.48.07-.72Z"/>
    <path class="cls-1" d="m534.23,198.75c-78.43,2.6-143.08,63.47-150.26,141.57.15-.01.3-.05.45-.05.43,0,.84.07,1.24.18,7.12-77.24,71.03-137.42,148.6-140.01-.06-.31-.1-.63-.1-.96,0-.25.04-.49.07-.73Z"/>
    <path class="cls-1" d="m539.36,170.96c1.81,0,3.29,1.47,3.29,3.29s-1.47,3.29-3.29,3.29c-1.51,0-2.77-1.03-3.15-2.42-.57,0-1.13.02-1.7.03.42,2.3,2.43,4.05,4.85,4.05,2.73,0,4.94-2.22,4.94-4.94s-2.22-4.94-4.94-4.94c-2.47,0-4.5,1.82-4.87,4.18.56-.01,1.13-.02,1.69-.03.36-1.43,1.64-2.49,3.18-2.49Z"/>
    <path class="cls-1" d="m534.5,175.14c.57-.01,1.13-.02,1.7-.03-.08-.28-.13-.57-.13-.87,0-.27.04-.54.11-.79-.56,0-1.13.01-1.69.03-.04.25-.08.5-.08.76,0,.31.04.61.09.9Z"/>
    <path class="cls-1" d="m539.1,194.54c-2.48,0-4.51,1.83-4.87,4.21.56-.02,1.13-.04,1.69-.05.35-1.43,1.64-2.5,3.18-2.5,1.81,0,3.29,1.47,3.29,3.29s-1.47,3.29-3.29,3.29c-1.49,0-2.74-1.01-3.14-2.37-.57.01-1.14.02-1.71.04.45,2.27,2.45,3.99,4.85,3.99,2.73,0,4.94-2.22,4.94-4.94s-2.22-4.94-4.94-4.94Z"/>
    <path class="cls-1" d="m535.81,199.48c0-.27.04-.53.11-.79-.56.01-1.13.04-1.69.05-.04.24-.07.48-.07.73,0,.33.04.65.1.96.57-.02,1.14-.03,1.71-.04-.09-.29-.15-.6-.15-.91Z"/>
    <path class="cls-1" d="m539.1,221.11c-2.48,0-4.52,1.84-4.87,4.23.56-.02,1.12-.03,1.68-.04.34-1.45,1.64-2.53,3.19-2.53,1.81,0,3.29,1.47,3.29,3.29s-1.47,3.29-3.29,3.29c-1.5,0-2.75-1.01-3.14-2.38-.57.01-1.14.02-1.71.04.44,2.27,2.45,4,4.85,4,2.73,0,4.94-2.22,4.94-4.94s-2.22-4.94-4.94-4.94Z"/>
    <path class="cls-1" d="m535.81,226.06c0-.26.04-.51.1-.75-.56.01-1.12.02-1.68.04-.03.24-.07.47-.07.72,0,.32.04.64.1.95.57-.02,1.14-.03,1.71-.04-.08-.29-.14-.59-.14-.91Z"/>
    <path class="cls-1" d="m413.49,345.21c0,1.81-1.47,3.29-3.29,3.29s-3.29-1.47-3.29-3.29c0-1.64,1.21-2.99,2.78-3.23.06-.56.11-1.12.17-1.68-2.57.18-4.61,2.3-4.61,4.91s2.22,4.94,4.94,4.94,4.94-2.22,4.94-4.94c0-2.27-1.54-4.16-3.63-4.74-.06.56-.11,1.12-.17,1.68,1.25.47,2.14,1.66,2.14,3.07Z"/>
    <path class="cls-1" d="m409.86,340.3c-.06.56-.11,1.12-.17,1.68.17-.03.33-.05.51-.05.4,0,.79.08,1.15.22.06-.56.11-1.12.17-1.68-.42-.12-.86-.2-1.32-.2-.12,0-.22.03-.34.03Z"/>
    <path class="cls-1" d="m387.7,345.22c0,1.81-1.47,3.29-3.29,3.29s-3.29-1.47-3.29-3.29c0-1.61,1.16-2.94,2.69-3.23.05-.56.1-1.12.15-1.67-2.51.23-4.49,2.33-4.49,4.9,0,2.73,2.22,4.94,4.94,4.94s4.94-2.22,4.94-4.94c0-2.3-1.58-4.22-3.71-4.77-.05.56-.1,1.12-.14,1.68,1.27.45,2.19,1.66,2.19,3.08Z"/>
    <path class="cls-1" d="m383.96,340.32c-.05.56-.1,1.11-.15,1.67.19-.04.39-.06.6-.06.39,0,.75.08,1.09.2.05-.56.09-1.12.14-1.68-.4-.1-.81-.18-1.24-.18-.15,0-.3.03-.45.05Z"/>
    <path class="cls-1" d="m359.69,340.41c-.05.56-.08,1.13-.12,1.69,1.3.44,2.24,1.66,2.24,3.1,0,1.81-1.47,3.29-3.29,3.29s-3.29-1.47-3.29-3.29c0-1.6,1.15-2.94,2.67-3.22.04-.56.08-1.12.12-1.67-2.49.25-4.45,2.34-4.45,4.9,0,2.73,2.22,4.94,4.94,4.94s4.94-2.22,4.94-4.94c0-2.32-1.62-4.26-3.78-4.79Z"/>
    <path class="cls-1" d="m358.53,341.92c.37,0,.71.07,1.04.19.04-.56.08-1.13.12-1.69-.38-.09-.76-.15-1.16-.15-.17,0-.33.03-.49.05-.05.56-.08,1.11-.12,1.67.2-.04.4-.06.61-.06Z"/>
  </g>
</svg>